  0
SECTION
  2
HEADER
  9
$ACADVER
  1
AC1009
  9
$INSBASE
 10
0.0
 20
0.0
 30
0.0
  9
$EXTMIN
 10
-2927.9764449410467932
 20
-2997.3530027887768483
 30
0.0
  9
$EXTMAX
 10
17072.0235550589495688
 20
17002.6469972112208779
 30
0.0
  9
$LIMMIN
 10
0.0
 20
0.0
  9
$LIMMAX
 10
12.0
 20
9.0
  9
$ORTHOMODE
 70
     0
  9
$REGENMODE
 70
     1
  9
$FILLMODE
 70
     1
  9
$QTEXTMODE
 70
     0
  9
$MIRRTEXT
 70
     0
  9
$DRAGMODE
 70
     2
  9
$LTSCALE
 40
1.0
  9
$OSMODE
 70
    39
  9
$ATTMODE
 70
     1
  9
$TEXTSIZE
 40
0.2
  9
$TRACEWID
 40
0.05
  9
$TEXTSTYLE
  7
STANDARD
  9
$CLAYER
  8
WIRE
  9
$CELTYPE
  6
BYLAYER
  9
$CECOLOR
 62
   256
  9
$DIMSCALE
 40
1.0
  9
$DIMASZ
 40
0.18
  9
$DIMEXO
 40
0.0625
  9
$DIMDLI
 40
0.38
  9
$DIMRND
 40
0.0
  9
$DIMDLE
 40
0.0
  9
$DIMEXE
 40
0.18
  9
$DIMTP
 40
0.0
  9
$DIMTM
 40
0.0
  9
$DIMTXT
 40
0.18
  9
$DIMCEN
 40
0.09
  9
$DIMTSZ
 40
0.0
  9
$DIMTOL
 70
     0
  9
$DIMLIM
 70
     0
  9
$DIMTIH
 70
     1
  9
$DIMTOH
 70
     1
  9
$DIMSE1
 70
     0
  9
$DIMSE2
 70
     0
  9
$DIMTAD
 70
     0
  9
$DIMZIN
 70
     0
  9
$DIMBLK
  1

  9
$DIMASO
 70
     1
  9
$DIMSHO
 70
     1
  9
$DIMPOST
  1

  9
$DIMAPOST
  1

  9
$DIMALT
 70
     0
  9
$DIMALTD
 70
     2
  9
$DIMALTF
 40
25.3999999999999986
  9
$DIMLFAC
 40
1.0
  9
$DIMTOFL
 70
     0
  9
$DIMTVP
 40
0.0
  9
$DIMTIX
 70
     0
  9
$DIMSOXD
 70
     0
  9
$DIMSAH
 70
     0
  9
$DIMBLK1
  1

  9
$DIMBLK2
  1

  9
$DIMSTYLE
  2
STANDARD
  9
$DIMCLRD
 70
     0
  9
$DIMCLRE
 70
     0
  9
$DIMCLRT
 70
     0
  9
$DIMTFAC
 40
1.0
  9
$DIMGAP
 40
0.09
  9
$LUNITS
 70
     2
  9
$LUPREC
 70
     4
  9
$SKETCHINC
 40
0.1
  9
$FILLETRAD
 40
0.0
  9
$AUNITS
 70
     0
  9
$AUPREC
 70
     0
  9
$MENU
  1
.
  9
$ELEVATION
 40
0.0
  9
$PELEVATION
 40
0.0
  9
$THICKNESS
 40
0.0
  9
$LIMCHECK
 70
     0
  9
$BLIPMODE
 70
     0
  9
$CHAMFERA
 40
0.0
  9
$CHAMFERB
 40
0.0
  9
$SKPOLY
 70
     0
  9
$TDCREATE
 40
2460689.6441203709691763
  9
$TDUPDATE
 40
2460962.9017245369032025
  9
$TDINDWG
 40
1.0155787036999999
  9
$TDUSRTIMER
 40
1.0155787036999999
  9
$USRTIMER
 70
     1
  9
$ANGBASE
 50
0.0
  9
$ANGDIR
 70
     0
  9
$PDMODE
 70
     0
  9
$PDSIZE
 40
0.0
  9
$PLINEWID
 40
0.0
  9
$COORDS
 70
     1
  9
$SPLFRAME
 70
     0
  9
$SPLINETYPE
 70
     6
  9
$SPLINESEGS
 70
     8
  9
$ATTDIA
 70
     1
  9
$ATTREQ
 70
     1
  9
$HANDLING
 70
     1
  9
$HANDSEED
  5
3B5
  9
$SURFTAB1
 70
     6
  9
$SURFTAB2
 70
     6
  9
$SURFTYPE
 70
     6
  9
$SURFU
 70
     6
  9
$SURFV
 70
     6
  9
$UCSNAME
  2

  9
$UCSORG
 10
-9860.6716846525669098
 20
-5375.6085706055173432
 30
0.0
  9
$UCSXDIR
 10
1.0
 20
0.0
 30
0.0
  9
$UCSYDIR
 10
0.0
 20
1.0
 30
0.0
  9
$PUCSNAME
  2

  9
$PUCSORG
 10
0.0
 20
0.0
 30
0.0
  9
$PUCSXDIR
 10
1.0
 20
0.0
 30
0.0
  9
$PUCSYDIR
 10
0.0
 20
1.0
 30
0.0
  9
$USERI1
 70
     0
  9
$USERI2
 70
     0
  9
$USERI3
 70
     0
  9
$USERI4
 70
     0
  9
$USERI5
 70
     0
  9
$USERR1
 40
0.0
  9
$USERR2
 40
0.0
  9
$USERR3
 40
0.0
  9
$USERR4
 40
0.0
  9
$USERR5
 40
0.0
  9
$WORLDVIEW
 70
     1
  9
$SHADEDGE
 70
     3
  9
$SHADEDIF
 70
    70
  9
$TILEMODE
 70
     1
  9
$MAXACTVP
 70
    64
  9
$PLIMCHECK
 70
     0
  9
$PEXTMIN
 10
0.0
 20
0.0
 30
0.0
  9
$PEXTMAX
 10
0.0
 20
0.0
 30
0.0
  9
$PLIMMIN
 10
0.0
 20
0.0
  9
$PLIMMAX
 10
12.0
 20
9.0
  9
$UNITMODE
 70
     0
  9
$VISRETAIN
 70
     1
  9
$PLINEGEN
 70
     0
  9
$PSLTSCALE
 70
     1
  0
ENDSEC
  0
SECTION
  2
TABLES
  0
TABLE
  2
VPORT
 70
     1
  0
VPORT
  2
*ACTIVE
 70
     0
 10
0.0
 20
0.0
 11
1.0
 21
1.0
 12
-686.0189026572758166
 22
373.7431962901579254
 13
0.0
 23
0.0
 14
0.5
 24
0.5
 15
0.5
 25
0.5
 16
-0.0000000000172804
 26
0.0
 36
76547.3536081441998249
 17
7072.0234375
 27
7002.646728515625
 37
0.0
 40
2.3844211027775488
 41
2.2037887485648682
 42
50.0
 43
0.0
 44
0.0
 50
0.0
 51
0.0
 71
     0
 72
  1000
 73
     1
 74
     3
 75
     0
 76
     1
 77
     0
 78
     0
  0
ENDTAB
  0
TABLE
  2
LTYPE
 70
     1
  0
LTYPE
  2
CONTINUOUS
 70
     0
  3
Solid line
 72
    65
 73
     0
 40
0.0
  0
ENDTAB
  0
TABLE
  2
LAYER
 70
     5
  0
LAYER
  2
0
 70
     0
 62
     7
  6
CONTINUOUS
  0
LAYER
  2
BOTTOM_FOOTPRINT
 70
     0
 62
     4
  6
CONTINUOUS
  0
LAYER
  2
VIAS
 70
     0
 62
     5
  6
CONTINUOUS
  0
LAYER
  2
PILLARS
 70
     0
 62
     6
  6
CONTINUOUS
  0
LAYER
  2
WIRE
 70
     0
 62
     2
  6
CONTINUOUS
  0
ENDTAB
  0
TABLE
  2
STYLE
 70
     2
  0
STYLE
  2
STANDARD
 70
     0
 40
0.0
 41
1.0
 50
0.0
 71
     0
 42
0.2
  3
txt
  4

  0
STYLE
  2
ANNOTATIVE
 70
     0
 40
0.0
 41
1.0
 50
0.0
 71
     0
 42
0.2
  3
txt
  4

  0
ENDTAB
  0
TABLE
  2
VIEW
 70
     0
  0
ENDTAB
  0
TABLE
  2
UCS
 70
     0
  0
ENDTAB
  0
TABLE
  2
APPID
 70
    10
  0
APPID
  2
ACAD
 70
     0
  0
APPID
  2
ACADANNOPO
 70
     0
  0
APPID
  2
ACADANNOTATIVE
 70
     0
  0
APPID
  2
ACAD_DSTYLE_DIMJAG
 70
     0
  0
APPID
  2
ACAD_DSTYLE_DIMTALN
 70
     0
  0
APPID
  2
ACAD_MLEADERVER
 70
     0
  0
APPID
  2
ACAD_NAV_VCDISPLAY
 70
     0
  0
APPID
  2
ACAECLAYERSTANDARD
 70
     0
  0
APPID
  2
ACCMTRANSPARENCY
 70
     0
  0
APPID
  2
ACAD_EXEMPT_FROM_CAD_STANDARDS
 70
     0
  0
ENDTAB
  0
TABLE
  2
DIMSTYLE
 70
     2
  0
DIMSTYLE
  2
STANDARD
 70
     0
  3

  4

  5

  6

  7

 40
1.0
 41
0.18
 42
0.0625
 43
0.38
 44
0.18
 45
0.0
 46
0.0
 47
0.0
 48
0.0
140
0.18
141
0.09
142
0.0
143
25.3999999999999986
144
1.0
145
0.0
146
1.0
147
0.09
 71
     0
 72
     0
 73
     1
 74
     1
 75
     0
 76
     0
 77
     0
 78
     0
170
     0
171
     2
172
     0
173
     0
174
     0
175
     0
176
     0
177
     0
178
     0
  0
DIMSTYLE
  2
ANNOTATIVE
 70
     0
  3

  4

  5

  6

  7

 40
0.0
 41
0.18
 42
0.0625
 43
0.38
 44
0.18
 45
0.0
 46
0.0
 47
0.0
 48
0.0
140
0.18
141
0.09
142
0.0
143
25.3999999999999986
144
1.0
145
0.0
146
1.0
147
0.09
 71
     0
 72
     0
 73
     1
 74
     1
 75
     0
 76
     0
 77
     0
 78
     0
170
     0
171
     2
172
     0
173
     0
174
     0
175
     0
176
     0
177
     0
178
     0
  0
ENDTAB
  0
ENDSEC
  0
SECTION
  2
BLOCKS
  0
BLOCK
  8
0
  2
$MODEL_SPACE
 70
     0
 10
0.0
 20
0.0
 30
0.0
  3
$MODEL_SPACE
  1

  0
ENDBLK
  5
21
  8
0
  0
BLOCK
 67
     1
  8
0
  2
$PAPER_SPACE
 70
     0
 10
0.0
 20
0.0
 30
0.0
  3
$PAPER_SPACE
  1

  0
ENDBLK
  5
5B
 67
     1
  8
0
  0
ENDSEC
  0
SECTION
  2
ENTITIES
  0
POLYLINE
  5
268
  8
PILLARS
  6
CONTINUOUS
 66
     1
 10
0.0
 20
0.0
 30
0.0
  0
VERTEX
  5
32C
  8
PILLARS
  6
CONTINUOUS
 10
1.9885550589605421
 20
14002.6819972112098185
 30
0.0
  0
VERTEX
  5
32D
  8
PILLARS
  6
CONTINUOUS
 10
2.0585550589384241
 20
14002.6819972112098185
 30
0.0
  0
VERTEX
  5
32E
  8
PILLARS
  6
CONTINUOUS
 10
2.0585550589384241
 20
14002.6119972112592222
 30
0.0
  0
VERTEX
  5
32F
  8
PILLARS
  6
CONTINUOUS
 10
1.988555058967818
 20
14002.6119972112192045
 30
0.0
  0
VERTEX
  5
330
  8
PILLARS
  6
CONTINUOUS
 10
1.9885550589605421
 20
14002.6819972112098185
 30
0.0
  0
SEQEND
  5
331
  8
PILLARS
  6
CONTINUOUS
  0
POLYLINE
  5
269
  8
VIAS
  6
CONTINUOUS
 66
     1
 10
0.0
 20
0.0
 30
0.0
  0
VERTEX
  5
332
  8
VIAS
  6
CONTINUOUS
 10
1.9885550589605421
 20
14002.6819972112098185
 30
0.0
  0
VERTEX
  5
333
  8
VIAS
  6
CONTINUOUS
 10
2.0585550589384241
 20
14002.6819972112098185
 30
0.0
  0
VERTEX
  5
334
  8
VIAS
  6
CONTINUOUS
 10
2.0585550589384241
 20
14002.6119972112592222
 30
0.0
  0
VERTEX
  5
335
  8
VIAS
  6
CONTINUOUS
 10
1.988555058967818
 20
14002.6119972112192045
 30
0.0
  0
VERTEX
  5
336
  8
VIAS
  6
CONTINUOUS
 10
1.9885550589605421
 20
14002.6819972112098185
 30
0.0
  0
SEQEND
  5
337
  8
VIAS
  6
CONTINUOUS
  0
POLYLINE
  5
26A
  8
BOTTOM_FOOTPRINT
  6
CONTINUOUS
 66
     1
 10
0.0
 20
0.0
 30
0.0
  0
VERTEX
  5
338
  8
BOTTOM_FOOTPRINT
  6
CONTINUOUS
 10
1.9885550589605421
 20
14002.6819972112098185
 30
0.0
  0
VERTEX
  5
339
  8
BOTTOM_FOOTPRINT
  6
CONTINUOUS
 10
2.0585550589384241
 20
14002.6819972112098185
 30
0.0
  0
VERTEX
  5
33A
  8
BOTTOM_FOOTPRINT
  6
CONTINUOUS
 10
2.0585550589384241
 20
14002.6119972112592222
 30
0.0
  0
VERTEX
  5
33B
  8
BOTTOM_FOOTPRINT
  6
CONTINUOUS
 10
1.988555058967818
 20
14002.6119972112192045
 30
0.0
  0
VERTEX
  5
33C
  8
BOTTOM_FOOTPRINT
  6
CONTINUOUS
 10
1.9885550589605421
 20
14002.6819972112098185
 30
0.0
  0
SEQEND
  5
33D
  8
BOTTOM_FOOTPRINT
  6
CONTINUOUS
  0
POLYLINE
  5
26B
  8
PILLARS
  6
CONTINUOUS
 66
     1
 10
0.0
 20
0.0
 30
0.0
  0
VERTEX
  5
33E
  8
PILLARS
  6
CONTINUOUS
 10
1.988555058967818
 20
2.6819972112158932
 30
0.0
  0
VERTEX
  5
33F
  8
PILLARS
  6
CONTINUOUS
 10
2.0585550589457
 20
2.6819972112158932
 30
0.0
  0
VERTEX
  5
340
  8
PILLARS
  6
CONTINUOUS
 10
2.0585550589457
 20
2.611997211256202
 30
0.0
  0
VERTEX
  5
341
  8
PILLARS
  6
CONTINUOUS
 10
1.988555058975094
 20
2.6119972112234602
 30
0.0
  0
VERTEX
  5
342
  8
PILLARS
  6
CONTINUOUS
 10
1.988555058967818
 20
2.6819972112158932
 30
0.0
  0
SEQEND
  5
343
  8
PILLARS
  6
CONTINUOUS
  0
POLYLINE
  5
26C
  8
VIAS
  6
CONTINUOUS
 66
     1
 10
0.0
 20
0.0
 30
0.0
  0
VERTEX
  5
344
  8
VIAS
  6
CONTINUOUS
 10
1.988555058967818
 20
2.6819972112158932
 30
0.0
  0
VERTEX
  5
345
  8
VIAS
  6
CONTINUOUS
 10
2.0585550589457
 20
2.6819972112158932
 30
0.0
  0
VERTEX
  5
346
  8
VIAS
  6
CONTINUOUS
 10
2.0585550589457
 20
2.611997211256202
 30
0.0
  0
VERTEX
  5
347
  8
VIAS
  6
CONTINUOUS
 10
1.988555058975094
 20
2.6119972112234602
 30
0.0
  0
VERTEX
  5
348
  8
VIAS
  6
CONTINUOUS
 10
1.988555058967818
 20
2.6819972112158932
 30
0.0
  0
SEQEND
  5
349
  8
VIAS
  6
CONTINUOUS
  0
POLYLINE
  5
26D
  8
BOTTOM_FOOTPRINT
  6
CONTINUOUS
 66
     1
 10
0.0
 20
0.0
 30
0.0
  0
VERTEX
  5
34A
  8
BOTTOM_FOOTPRINT
  6
CONTINUOUS
 10
1.988555058967818
 20
2.6819972112158932
 30
0.0
  0
VERTEX
  5
34B
  8
BOTTOM_FOOTPRINT
  6
CONTINUOUS
 10
2.0585550589457
 20
2.6819972112158932
 30
0.0
  0
VERTEX
  5
34C
  8
BOTTOM_FOOTPRINT
  6
CONTINUOUS
 10
2.0585550589457
 20
2.611997211256202
 30
0.0
  0
VERTEX
  5
34D
  8
BOTTOM_FOOTPRINT
  6
CONTINUOUS
 10
1.988555058975094
 20
2.6119972112234602
 30
0.0
  0
VERTEX
  5
34E
  8
BOTTOM_FOOTPRINT
  6
CONTINUOUS
 10
1.988555058967818
 20
2.6819972112158932
 30
0.0
  0
SEQEND
  5
34F
  8
BOTTOM_FOOTPRINT
  6
CONTINUOUS
  0
POLYLINE
  5
26E
  8
PILLARS
  6
CONTINUOUS
 66
     1
 10
0.0
 20
0.0
 30
0.0
  0
VERTEX
  5
350
  8
PILLARS
  6
CONTINUOUS
 10
14141.9885550589697232
 20
2.6819972112158932
 30
0.0
  0
VERTEX
  5
351
  8
PILLARS
  6
CONTINUOUS
 10
14142.0585550589403283
 20
2.6819972112158932
 30
0.0
  0
VERTEX
  5
352
  8
PILLARS
  6
CONTINUOUS
 10
14142.0585550589403283
 20
2.611997211256202
 30
0.0
  0
VERTEX
  5
353
  8
PILLARS
  6
CONTINUOUS
 10
14141.9885550589697232
 20
2.6119972112234602
 30
0.0
  0
VERTEX
  5
354
  8
PILLARS
  6
CONTINUOUS
 10
14141.9885550589697232
 20
2.6819972112158932
 30
0.0
  0
SEQEND
  5
355
  8
PILLARS
  6
CONTINUOUS
  0
POLYLINE
  5
26F
  8
VIAS
  6
CONTINUOUS
 66
     1
 10
0.0
 20
0.0
 30
0.0
  0
VERTEX
  5
356
  8
VIAS
  6
CONTINUOUS
 10
14141.9885550589697232
 20
2.6819972112158932
 30
0.0
  0
VERTEX
  5
357
  8
VIAS
  6
CONTINUOUS
 10
14142.0585550589403283
 20
2.6819972112158932
 30
0.0
  0
VERTEX
  5
358
  8
VIAS
  6
CONTINUOUS
 10
14142.0585550589403283
 20
2.611997211256202
 30
0.0
  0
VERTEX
  5
359
  8
VIAS
  6
CONTINUOUS
 10
14141.9885550589697232
 20
2.6119972112234602
 30
0.0
  0
VERTEX
  5
35A
  8
VIAS
  6
CONTINUOUS
 10
14141.9885550589697232
 20
2.6819972112158932
 30
0.0
  0
SEQEND
  5
35B
  8
VIAS
  6
CONTINUOUS
  0
POLYLINE
  5
270
  8
BOTTOM_FOOTPRINT
  6
CONTINUOUS
 66
     1
 10
0.0
 20
0.0
 30
0.0
  0
VERTEX
  5
35C
  8
BOTTOM_FOOTPRINT
  6
CONTINUOUS
 10
14141.9885550589697232
 20
2.6819972112158932
 30
0.0
  0
VERTEX
  5
35D
  8
BOTTOM_FOOTPRINT
  6
CONTINUOUS
 10
14142.0585550589403283
 20
2.6819972112158932
 30
0.0
  0
VERTEX
  5
35E
  8
BOTTOM_FOOTPRINT
  6
CONTINUOUS
 10
14142.0585550589403283
 20
2.611997211256202
 30
0.0
  0
VERTEX
  5
35F
  8
BOTTOM_FOOTPRINT
  6
CONTINUOUS
 10
14141.9885550589697232
 20
2.6119972112234602
 30
0.0
  0
VERTEX
  5
360
  8
BOTTOM_FOOTPRINT
  6
CONTINUOUS
 10
14141.9885550589697232
 20
2.6819972112158932
 30
0.0
  0
SEQEND
  5
361
  8
BOTTOM_FOOTPRINT
  6
CONTINUOUS
  0
POLYLINE
  5
271
  8
PILLARS
  6
CONTINUOUS
 66
     1
 10
0.0
 20
0.0
 30
0.0
  0
VERTEX
  5
362
  8
PILLARS
  6
CONTINUOUS
 10
14141.9885550589697232
 20
14002.6819972112098185
 30
0.0
  0
VERTEX
  5
363
  8
PILLARS
  6
CONTINUOUS
 10
14142.0585550589403283
 20
14002.6819972112098185
 30
0.0
  0
VERTEX
  5
364
  8
PILLARS
  6
CONTINUOUS
 10
14142.0585550589403283
 20
14002.6119972112592222
 30
0.0
  0
VERTEX
  5
365
  8
PILLARS
  6
CONTINUOUS
 10
14141.9885550589697232
 20
14002.6119972112192045
 30
0.0
  0
VERTEX
  5
366
  8
PILLARS
  6
CONTINUOUS
 10
14141.9885550589697232
 20
14002.6819972112098185
 30
0.0
  0
SEQEND
  5
367
  8
PILLARS
  6
CONTINUOUS
  0
POLYLINE
  5
272
  8
VIAS
  6
CONTINUOUS
 66
     1
 10
0.0
 20
0.0
 30
0.0
  0
VERTEX
  5
368
  8
VIAS
  6
CONTINUOUS
 10
14141.9885550589697232
 20
14002.6819972112098185
 30
0.0
  0
VERTEX
  5
369
  8
VIAS
  6
CONTINUOUS
 10
14142.0585550589403283
 20
14002.6819972112098185
 30
0.0
  0
VERTEX
  5
36A
  8
VIAS
  6
CONTINUOUS
 10
14142.0585550589403283
 20
14002.6119972112592222
 30
0.0
  0
VERTEX
  5
36B
  8
VIAS
  6
CONTINUOUS
 10
14141.9885550589697232
 20
14002.6119972112192045
 30
0.0
  0
VERTEX
  5
36C
  8
VIAS
  6
CONTINUOUS
 10
14141.9885550589697232
 20
14002.6819972112098185
 30
0.0
  0
SEQEND
  5
36D
  8
VIAS
  6
CONTINUOUS
  0
POLYLINE
  5
273
  8
BOTTOM_FOOTPRINT
  6
CONTINUOUS
 66
     1
 10
0.0
 20
0.0
 30
0.0
  0
VERTEX
  5
36E
  8
BOTTOM_FOOTPRINT
  6
CONTINUOUS
 10
14141.9885550589697232
 20
14002.6819972112098185
 30
0.0
  0
VERTEX
  5
36F
  8
BOTTOM_FOOTPRINT
  6
CONTINUOUS
 10
14142.0585550589403283
 20
14002.6819972112098185
 30
0.0
  0
VERTEX
  5
370
  8
BOTTOM_FOOTPRINT
  6
CONTINUOUS
 10
14142.0585550589403283
 20
14002.6119972112592222
 30
0.0
  0
VERTEX
  5
371
  8
BOTTOM_FOOTPRINT
  6
CONTINUOUS
 10
14141.9885550589697232
 20
14002.6119972112192045
 30
0.0
  0
VERTEX
  5
372
  8
BOTTOM_FOOTPRINT
  6
CONTINUOUS
 10
14141.9885550589697232
 20
14002.6819972112098185
 30
0.0
  0
SEQEND
  5
373
  8
BOTTOM_FOOTPRINT
  6
CONTINUOUS
  0
POLYLINE
  5
27C
  8
WIRE
 66
     1
 10
0.0
 20
0.0
 30
0.0
 70
     1
  0
VERTEX
  5
374
  8
WIRE
 10
1.988555058967904
 20
2.6819972112161841
 30
0.0
  0
VERTEX
  5
375
  8
WIRE
 10
2.0585550589457848
 20
2.6819972112161841
 30
0.0
  0
VERTEX
  5
376
  8
WIRE
 10
2.0585550589457848
 20
2.6119972112564929
 30
0.0
  0
VERTEX
  5
377
  8
WIRE
 10
1.988555058967904
 20
2.6119972112564929
 30
0.0
  0
SEQEND
  5
378
  8
WIRE
  0
POLYLINE
  5
27D
  8
WIRE
 66
     1
 10
0.0
 20
0.0
 30
0.0
 70
     1
  0
VERTEX
  5
379
  8
WIRE
 10
14141.9885550589697232
 20
2.6119972112237511
 30
0.0
  0
VERTEX
  5
37A
  8
WIRE
 10
14142.0585550589403283
 20
2.6119972112237511
 30
0.0
  0
VERTEX
  5
37B
  8
WIRE
 10
14142.0585550589403283
 20
2.6819972112161841
 30
0.0
  0
VERTEX
  5
37C
  8
WIRE
 10
14141.9885550589697232
 20
2.6819972112161841
 30
0.0
  0
SEQEND
  5
37D
  8
WIRE
  0
POLYLINE
  5
27E
  8
WIRE
 66
     1
 10
0.0
 20
0.0
 30
0.0
 70
     1
  0
VERTEX
  5
37E
  8
WIRE
 10
1.988555058967904
 20
14002.6119972112192045
 30
0.0
  0
VERTEX
  5
37F
  8
WIRE
 10
2.0585550589385089
 20
14002.6119972112192045
 30
0.0
  0
VERTEX
  5
380
  8
WIRE
 10
2.0585550589385089
 20
14002.6819972112098185
 30
0.0
  0
VERTEX
  5
381
  8
WIRE
 10
1.988555058967904
 20
14002.6819972112098185
 30
0.0
  0
SEQEND
  5
382
  8
WIRE
  0
POLYLINE
  5
27F
  8
WIRE
 66
     1
 10
0.0
 20
0.0
 30
0.0
 70
     1
  0
VERTEX
  5
383
  8
WIRE
 10
14141.9885550589697232
 20
14002.6119972112192045
 30
0.0
  0
VERTEX
  5
384
  8
WIRE
 10
14142.0585550589403283
 20
14002.6119972112192045
 30
0.0
  0
VERTEX
  5
385
  8
WIRE
 10
14142.0585550589403283
 20
14002.6819972112098185
 30
0.0
  0
VERTEX
  5
386
  8
WIRE
 10
14141.9885550589697232
 20
14002.6819972112098185
 30
0.0
  0
SEQEND
  5
387
  8
WIRE
  0
POLYLINE
  5
286
  8
0
 66
     1
 10
0.0
 20
0.0
 30
0.0
  0
VERTEX
  5
388
  8
0
 10
-2927.9764449410467932
 20
17002.6469972112208779
 30
0.0
  0
VERTEX
  5
389
  8
0
 10
17072.0235550589495688
 20
17002.6469972112208779
 30
0.0
  0
VERTEX
  5
38A
  8
0
 10
17072.0235550589495688
 20
-2997.3530027887768483
 30
0.0
  0
VERTEX
  5
38B
  8
0
 10
-2927.9764449410467932
 20
-2997.3530027887768483
 30
0.0
  0
VERTEX
  5
38C
  8
0
 10
-2927.9764449410467932
 20
17002.6469972112208779
 30
0.0
  0
SEQEND
  5
38D
  8
0
  0
CIRCLE
  5
287
  8
PILLARS
 10
6384.6842377186831072
 20
7376.4657494067751031
 30
0.0
 40
0.04
  0
CIRCLE
  5
290
  8
PILLARS
 10
6385.6842377186849262
 20
7376.4657494067751031
 30
0.0
 40
0.04
  0
POLYLINE
  5
291
  8
VIAS
 66
     1
 10
0.0
 20
0.0
 30
0.0
 70
     1
  0
VERTEX
  5
38E
  8
VIAS
 10
6384.6842377186831072
 20
7375.8057494067761581
 30
0.0
  0
VERTEX
  5
38F
  8
VIAS
 10
6385.6842377186849262
 20
7375.8057494067761581
 30
0.0
  0
VERTEX
  5
390
  8
VIAS
 10
6385.6842377186849262
 20
7375.7257494067753214
 30
0.0
  0
VERTEX
  5
391
  8
VIAS
 10
6384.6842377186831072
 20
7375.7257494067753214
 30
0.0
  0
SEQEND
  5
392
  8
VIAS
  0
POLYLINE
  5
2AB
  8
BOTTOM_FOOTPRINT
 66
     1
 10
0.0
 20
0.0
 30
0.0
 70
     1
  0
VERTEX
  5
393
  8
BOTTOM_FOOTPRINT
 10
6384.5842377186836529
 20
7376.5657494067763764
 30
0.0
  0
VERTEX
  5
394
  8
BOTTOM_FOOTPRINT
 10
6384.7842377186843805
 20
7376.5657494067763764
 30
0.0
  0
VERTEX
  5
395
  8
BOTTOM_FOOTPRINT
 10
6384.784237718687109
 20
7375.8657494067765583
 30
0.0
  0
VERTEX
  5
396
  8
BOTTOM_FOOTPRINT
 10
6385.5842377186845624
 20
7375.8657494067765583
 30
0.0
  0
VERTEX
  5
397
  8
BOTTOM_FOOTPRINT
 10
6385.5842377186836529
 20
7376.5657494067763764
 30
0.0
  0
VERTEX
  5
398
  8
BOTTOM_FOOTPRINT
 10
6385.7842377186843805
 20
7376.5657494067763764
 30
0.0
  0
VERTEX
  5
399
  8
BOTTOM_FOOTPRINT
 10
6385.7842377186861995
 20
7375.6657494067767402
 30
0.0
  0
VERTEX
  5
39A
  8
BOTTOM_FOOTPRINT
 10
6384.5842377186836529
 20
7375.6657494067767402
 30
0.0
  0
VERTEX
  5
39B
  8
BOTTOM_FOOTPRINT
 10
6384.5842377186836529
 20
7376.5657494067763764
 30
0.0
  0
SEQEND
  5
39C
  8
BOTTOM_FOOTPRINT
  0
POLYLINE
  5
2B3
  8
WIRE
 66
     1
 10
0.0
 20
0.0
 30
0.0
 70
     1
  0
VERTEX
  5
39D
  8
WIRE
 10
6384.5842377186836529
 20
7375.6657494067767402
 30
0.0
  0
VERTEX
  5
39E
  8
WIRE
 10
6385.7842377186861995
 20
7375.6657494067767402
 30
0.0
  0
VERTEX
  5
39F
  8
WIRE
 10
6385.7842377186861995
 20
7375.8657494067765583
 30
0.0
  0
VERTEX
  5
3A0
  8
WIRE
 10
6384.5842377186836529
 20
7375.8657494067765583
 30
0.0
  0
SEQEND
  5
3A1
  8
WIRE
  0
POLYLINE
  5
2B9
  8
WIRE
 66
     1
 10
0.0
 20
0.0
 30
0.0
 70
     1
  0
VERTEX
  5
3A2
  8
WIRE
 10
6385.7842377186843805
 20
7376.3657494067720108
 30
0.0
  0
VERTEX
  5
3A3
  8
WIRE
 10
6385.5842377186845624
 20
7376.3657494067720108
 30
0.0
  0
VERTEX
  5
3A4
  8
WIRE
 10
6385.5842377186836529
 20
7376.4657494067751031
 30
0.0
  0
VERTEX
  5
3A5
  8
WIRE
 10
6384.7842377186843805
 20
7376.4657494067751031
 30
0.0
  0
VERTEX
  5
3A6
  8
WIRE
 10
6384.784237718687109
 20
7376.3657494067720108
 30
0.0
  0
VERTEX
  5
3A7
  8
WIRE
 10
6384.5842377186836529
 20
7376.3657494067720108
 30
0.0
  0
VERTEX
  5
3A8
  8
WIRE
 10
6384.5842377186836529
 20
7376.6657494067749212
 30
0.0
  0
VERTEX
  5
3A9
  8
WIRE
 10
6385.7842377186843805
 20
7376.6657494067749212
 30
0.0
  0
SEQEND
  5
3AA
  8
WIRE
  0
LINE
  5
2BF
  8
VIAS
 10
6385.1842377186840167
 20
7376.4657494067751031
 30
0.0
 11
6385.28423771868529
 21
7376.4657494067751031
 31
0.0
  0
POLYLINE
  5
2C0
  8
WIRE
 66
     1
 10
0.0
 20
0.0
 30
0.0
 70
     1
  0
VERTEX
  5
3AB
  8
WIRE
 10
6385.28423771868529
 20
7376.4657494067751031
 30
0.0
  0
VERTEX
  5
3AC
  8
WIRE
 10
6385.0842377186836529
 20
7376.4657494067751031
 30
0.0
  0
VERTEX
  5
3AD
  8
WIRE
 10
6385.0842377186836529
 20
7377.3175549374873299
 30
0.0
  0
VERTEX
  5
3AE
  8
WIRE
 10
6385.28423771868529
 20
7377.3175549374873299
 30
0.0
  0
SEQEND
  5
3AF
  8
WIRE
  0
POLYLINE
  5
2C7
  8
WIRE
 66
     1
 10
0.0
 20
0.0
 30
0.0
 70
     1
  0
VERTEX
  5
3B0
  8
WIRE
 10
6385.2842377186861995
 20
7375.0139438760661506
 30
0.0
  0
VERTEX
  5
3B1
  8
WIRE
 10
6385.0842377186872909
 20
7375.0139438760661506
 30
0.0
  0
VERTEX
  5
3B2
  8
WIRE
 10
6385.0842377186872909
 20
7375.8657494067765583
 30
0.0
  0
VERTEX
  5
3B3
  8
WIRE
 10
6385.2842377186861995
 20
7375.8657494067765583
 30
0.0
  0
SEQEND
  5
3B4
  8
WIRE
  0
ENDSEC
  0
EOF
