0
SECTION
2
HEADER
9
$ACADVER
1
AC1006
0
ENDSEC
0
SECTION
2
TABLES
0
TABLE
2
LAYER
70
1
0
LAYER
70
0
62
1
6
CONTINUOUS
2
L1D1
0
ENDTAB
0
ENDSEC
0
SECTION
2
BLOCKS
0
ENDSEC
0
SECTION
2
ENTITIES
0
POLYLINE
8
L1D1
70
1
40
0
41
0
66
1
0
VERTEX
8
L1D1
10
-648.846
20
-65.501
0
VERTEX
8
L1D1
10
-648.846
20
134.503
0
VERTEX
8
L1D1
10
-398.841
20
134.503
0
VERTEX
8
L1D1
10
-148.836
20
39.501
0
VERTEX
8
L1D1
10
-114.836
20
39.501
0
VERTEX
8
L1D1
10
-114.836
20
74.835
0
VERTEX
8
L1D1
10
-104.502
20
74.835
0
VERTEX
8
L1D1
10
-104.502
20
39.501
0
VERTEX
8
L1D1
10
-81.335
20
39.501
0
VERTEX
8
L1D1
10
-81.335
20
74.835
0
VERTEX
8
L1D1
10
-71.001
20
74.835
0
VERTEX
8
L1D1
10
-71.001
20
39.501
0
VERTEX
8
L1D1
10
-48.668
20
39.501
0
VERTEX
8
L1D1
10
-48.668
20
74.835
0
VERTEX
8
L1D1
10
-38.334
20
74.835
0
VERTEX
8
L1D1
10
-38.334
20
39.501
0
VERTEX
8
L1D1
10
-15.167
20
39.501
0
VERTEX
8
L1D1
10
-15.167
20
74.835
0
VERTEX
8
L1D1
10
-4.833
20
74.835
0
VERTEX
8
L1D1
10
-4.833
20
39.501
0
VERTEX
8
L1D1
10
17.834
20
39.501
0
VERTEX
8
L1D1
10
17.834
20
74.835
0
VERTEX
8
L1D1
10
28.167
20
74.835
0
VERTEX
8
L1D1
10
28.167
20
39.501
0
VERTEX
8
L1D1
10
51.334
20
39.501
0
VERTEX
8
L1D1
10
51.334
20
74.835
0
VERTEX
8
L1D1
10
61.668
20
74.835
0
VERTEX
8
L1D1
10
61.668
20
39.501
0
VERTEX
8
L1D1
10
84.002
20
39.501
0
VERTEX
8
L1D1
10
84.002
20
74.835
0
VERTEX
8
L1D1
10
94.335
20
74.835
0
VERTEX
8
L1D1
10
94.335
20
39.501
0
VERTEX
8
L1D1
10
117.502
20
39.501
0
VERTEX
8
L1D1
10
117.502
20
74.835
0
VERTEX
8
L1D1
10
127.836
20
74.835
0
VERTEX
8
L1D1
10
127.836
20
39.501
0
VERTEX
8
L1D1
10
150.503
20
39.501
0
VERTEX
8
L1D1
10
150.503
20
74.835
0
VERTEX
8
L1D1
10
160.837
20
74.835
0
VERTEX
8
L1D1
10
160.837
20
39.501
0
VERTEX
8
L1D1
10
184.004
20
39.501
0
VERTEX
8
L1D1
10
184.004
20
74.835
0
VERTEX
8
L1D1
10
194.337
20
74.835
0
VERTEX
8
L1D1
10
194.337
20
39.501
0
VERTEX
8
L1D1
10
216.671
20
39.501
0
VERTEX
8
L1D1
10
216.671
20
74.835
0
VERTEX
8
L1D1
10
227.005
20
74.835
0
VERTEX
8
L1D1
10
227.005
20
39.501
0
VERTEX
8
L1D1
10
250.172
20
39.501
0
VERTEX
8
L1D1
10
250.172
20
74.835
0
VERTEX
8
L1D1
10
260.505
20
74.835
0
VERTEX
8
L1D1
10
260.505
20
39.501
0
VERTEX
8
L1D1
10
283.172
20
39.501
0
VERTEX
8
L1D1
10
283.172
20
74.835
0
VERTEX
8
L1D1
10
293.506
20
74.835
0
VERTEX
8
L1D1
10
293.506
20
39.501
0
VERTEX
8
L1D1
10
316.673
20
39.501
0
VERTEX
8
L1D1
10
316.673
20
74.835
0
VERTEX
8
L1D1
10
327.007
20
74.835
0
VERTEX
8
L1D1
10
327.007
20
39.501
0
VERTEX
8
L1D1
10
349.34
20
39.501
0
VERTEX
8
L1D1
10
349.34
20
74.835
0
VERTEX
8
L1D1
10
359.674
20
74.835
0
VERTEX
8
L1D1
10
359.674
20
39.501
0
VERTEX
8
L1D1
10
382.841
20
39.501
0
VERTEX
8
L1D1
10
382.841
20
74.835
0
VERTEX
8
L1D1
10
393.175
20
74.835
0
VERTEX
8
L1D1
10
393.175
20
39.501
0
VERTEX
8
L1D1
10
415.842
20
39.501
0
VERTEX
8
L1D1
10
415.842
20
74.835
0
VERTEX
8
L1D1
10
426.175
20
74.835
0
VERTEX
8
L1D1
10
426.175
20
39.501
0
VERTEX
8
L1D1
10
449.342
20
39.501
0
VERTEX
8
L1D1
10
449.342
20
74.835
0
VERTEX
8
L1D1
10
459.676
20
74.835
0
VERTEX
8
L1D1
10
459.676
20
39.501
0
VERTEX
8
L1D1
10
482.01
20
39.501
0
VERTEX
8
L1D1
10
482.01
20
74.835
0
VERTEX
8
L1D1
10
492.343
20
74.835
0
VERTEX
8
L1D1
10
492.343
20
39.501
0
VERTEX
8
L1D1
10
515.51
20
39.501
0
VERTEX
8
L1D1
10
515.51
20
74.835
0
VERTEX
8
L1D1
10
525.844
20
74.835
0
VERTEX
8
L1D1
10
525.844
20
39.501
0
VERTEX
8
L1D1
10
561.345
20
39.501
0
VERTEX
8
L1D1
10
811.35
20
134.503
0
VERTEX
8
L1D1
10
1061.355
20
134.503
0
VERTEX
8
L1D1
10
1061.355
20
-65.501
0
VERTEX
8
L1D1
10
811.35
20
-65.501
0
VERTEX
8
L1D1
10
561.345
20
29.501
0
VERTEX
8
L1D1
10
525.844
20
29.501
0
VERTEX
8
L1D1
10
525.844
20
-5.833
0
VERTEX
8
L1D1
10
515.51
20
-5.833
0
VERTEX
8
L1D1
10
515.51
20
29.501
0
VERTEX
8
L1D1
10
492.343
20
29.501
0
VERTEX
8
L1D1
10
492.343
20
-5.833
0
VERTEX
8
L1D1
10
482.01
20
-5.833
0
VERTEX
8
L1D1
10
482.01
20
29.501
0
VERTEX
8
L1D1
10
459.676
20
29.501
0
VERTEX
8
L1D1
10
459.676
20
-5.833
0
VERTEX
8
L1D1
10
449.342
20
-5.833
0
VERTEX
8
L1D1
10
449.342
20
29.501
0
VERTEX
8
L1D1
10
426.175
20
29.501
0
VERTEX
8
L1D1
10
426.175
20
-5.833
0
VERTEX
8
L1D1
10
415.842
20
-5.833
0
VERTEX
8
L1D1
10
415.842
20
29.501
0
VERTEX
8
L1D1
10
393.175
20
29.501
0
VERTEX
8
L1D1
10
393.175
20
-5.833
0
VERTEX
8
L1D1
10
382.841
20
-5.833
0
VERTEX
8
L1D1
10
382.841
20
29.501
0
VERTEX
8
L1D1
10
359.674
20
29.501
0
VERTEX
8
L1D1
10
359.674
20
-5.833
0
VERTEX
8
L1D1
10
349.34
20
-5.833
0
VERTEX
8
L1D1
10
349.34
20
29.501
0
VERTEX
8
L1D1
10
327.007
20
29.501
0
VERTEX
8
L1D1
10
327.007
20
-5.833
0
VERTEX
8
L1D1
10
316.673
20
-5.833
0
VERTEX
8
L1D1
10
316.673
20
29.501
0
VERTEX
8
L1D1
10
293.506
20
29.501
0
VERTEX
8
L1D1
10
293.506
20
-5.833
0
VERTEX
8
L1D1
10
283.172
20
-5.833
0
VERTEX
8
L1D1
10
283.172
20
29.501
0
VERTEX
8
L1D1
10
260.505
20
29.501
0
VERTEX
8
L1D1
10
260.505
20
-5.833
0
VERTEX
8
L1D1
10
250.172
20
-5.833
0
VERTEX
8
L1D1
10
250.172
20
29.501
0
VERTEX
8
L1D1
10
227.005
20
29.501
0
VERTEX
8
L1D1
10
227.005
20
-5.833
0
VERTEX
8
L1D1
10
216.671
20
-5.833
0
VERTEX
8
L1D1
10
216.671
20
29.501
0
VERTEX
8
L1D1
10
194.337
20
29.501
0
VERTEX
8
L1D1
10
194.337
20
-5.833
0
VERTEX
8
L1D1
10
184.004
20
-5.833
0
VERTEX
8
L1D1
10
184.004
20
29.501
0
VERTEX
8
L1D1
10
160.837
20
29.501
0
VERTEX
8
L1D1
10
160.837
20
-5.833
0
VERTEX
8
L1D1
10
150.503
20
-5.833
0
VERTEX
8
L1D1
10
150.503
20
29.501
0
VERTEX
8
L1D1
10
127.836
20
29.501
0
VERTEX
8
L1D1
10
127.836
20
-5.833
0
VERTEX
8
L1D1
10
117.502
20
-5.833
0
VERTEX
8
L1D1
10
117.502
20
29.501
0
VERTEX
8
L1D1
10
94.335
20
29.501
0
VERTEX
8
L1D1
10
94.335
20
-5.833
0
VERTEX
8
L1D1
10
84.002
20
-5.833
0
VERTEX
8
L1D1
10
84.002
20
29.501
0
VERTEX
8
L1D1
10
61.668
20
29.501
0
VERTEX
8
L1D1
10
61.668
20
-5.833
0
VERTEX
8
L1D1
10
51.334
20
-5.833
0
VERTEX
8
L1D1
10
51.334
20
29.501
0
VERTEX
8
L1D1
10
28.167
20
29.501
0
VERTEX
8
L1D1
10
28.167
20
-5.833
0
VERTEX
8
L1D1
10
17.834
20
-5.833
0
VERTEX
8
L1D1
10
17.834
20
29.501
0
VERTEX
8
L1D1
10
-4.833
20
29.501
0
VERTEX
8
L1D1
10
-4.833
20
-5.833
0
VERTEX
8
L1D1
10
-15.167
20
-5.833
0
VERTEX
8
L1D1
10
-15.167
20
29.501
0
VERTEX
8
L1D1
10
-38.334
20
29.501
0
VERTEX
8
L1D1
10
-38.334
20
-5.833
0
VERTEX
8
L1D1
10
-48.668
20
-5.833
0
VERTEX
8
L1D1
10
-48.668
20
29.501
0
VERTEX
8
L1D1
10
-71.001
20
29.501
0
VERTEX
8
L1D1
10
-71.001
20
-5.833
0
VERTEX
8
L1D1
10
-81.335
20
-5.833
0
VERTEX
8
L1D1
10
-81.335
20
29.501
0
VERTEX
8
L1D1
10
-104.502
20
29.501
0
VERTEX
8
L1D1
10
-104.502
20
-5.833
0
VERTEX
8
L1D1
10
-114.836
20
-5.833
0
VERTEX
8
L1D1
10
-114.836
20
29.501
0
VERTEX
8
L1D1
10
-148.836
20
29.501
0
VERTEX
8
L1D1
10
-398.841
20
-65.501
0
SEQEND
0
POLYLINE
8
L1D1
70
1
40
0
41
0
66
1
0
VERTEX
8
L1D1
10
-883.018
20
-315.84
0
VERTEX
8
L1D1
10
-883.018
20
254.505
0
VERTEX
8
L1D1
10
811.35
20
254.505
0
VERTEX
8
L1D1
10
667.347
20
134.503
0
VERTEX
8
L1D1
10
561.345
20
46.168
0
VERTEX
8
L1D1
10
531.511
20
46.168
0
VERTEX
8
L1D1
10
531.511
20
81.502
0
VERTEX
8
L1D1
10
508.844
20
81.502
0
VERTEX
8
L1D1
10
508.844
20
46.168
0
VERTEX
8
L1D1
10
498.51
20
46.168
0
VERTEX
8
L1D1
10
498.51
20
81.502
0
VERTEX
8
L1D1
10
475.676
20
81.502
0
VERTEX
8
L1D1
10
475.676
20
46.168
0
VERTEX
8
L1D1
10
465.343
20
46.168
0
VERTEX
8
L1D1
10
465.343
20
81.502
0
VERTEX
8
L1D1
10
442.676
20
81.502
0
VERTEX
8
L1D1
10
442.676
20
46.168
0
VERTEX
8
L1D1
10
432.342
20
46.168
0
VERTEX
8
L1D1
10
432.342
20
81.502
0
VERTEX
8
L1D1
10
409.342
20
81.502
0
VERTEX
8
L1D1
10
409.342
20
46.168
0
VERTEX
8
L1D1
10
399.008
20
46.168
0
VERTEX
8
L1D1
10
399.008
20
81.502
0
VERTEX
8
L1D1
10
376.341
20
81.502
0
VERTEX
8
L1D1
10
376.341
20
46.168
0
VERTEX
8
L1D1
10
366.007
20
46.168
0
VERTEX
8
L1D1
10
366.007
20
81.502
0
VERTEX
8
L1D1
10
343.174
20
81.502
0
VERTEX
8
L1D1
10
343.174
20
46.168
0
VERTEX
8
L1D1
10
332.84
20
46.168
0
VERTEX
8
L1D1
10
332.84
20
81.502
0
VERTEX
8
L1D1
10
310.173
20
81.502
0
VERTEX
8
L1D1
10
310.173
20
46.168
0
VERTEX
8
L1D1
10
299.839
20
46.168
0
VERTEX
8
L1D1
10
299.839
20
81.502
0
VERTEX
8
L1D1
10
276.839
20
81.502
0
VERTEX
8
L1D1
10
276.839
20
46.168
0
VERTEX
8
L1D1
10
266.505
20
46.168
0
VERTEX
8
L1D1
10
266.505
20
81.502
0
VERTEX
8
L1D1
10
243.838
20
81.502
0
VERTEX
8
L1D1
10
243.838
20
46.168
0
VERTEX
8
L1D1
10
233.505
20
46.168
0
VERTEX
8
L1D1
10
233.505
20
81.502
0
VERTEX
8
L1D1
10
210.671
20
81.502
0
VERTEX
8
L1D1
10
210.671
20
46.168
0
VERTEX
8
L1D1
10
200.337
20
46.168
0
VERTEX
8
L1D1
10
200.337
20
81.502
0
VERTEX
8
L1D1
10
177.67
20
81.502
0
VERTEX
8
L1D1
10
177.67
20
46.168
0
VERTEX
8
L1D1
10
167.337
20
46.168
0
VERTEX
8
L1D1
10
167.337
20
81.502
0
VERTEX
8
L1D1
10
144.003
20
81.502
0
VERTEX
8
L1D1
10
144.003
20
46.168
0
VERTEX
8
L1D1
10
133.669
20
46.168
0
VERTEX
8
L1D1
10
133.669
20
81.502
0
VERTEX
8
L1D1
10
111.002
20
81.502
0
VERTEX
8
L1D1
10
111.002
20
46.168
0
VERTEX
8
L1D1
10
100.669
20
46.168
0
VERTEX
8
L1D1
10
100.669
20
81.502
0
VERTEX
8
L1D1
10
77.835
20
81.502
0
VERTEX
8
L1D1
10
77.835
20
46.168
0
VERTEX
8
L1D1
10
67.501
20
46.168
0
VERTEX
8
L1D1
10
67.501
20
81.502
0
VERTEX
8
L1D1
10
44.834
20
81.502
0
VERTEX
8
L1D1
10
44.834
20
46.168
0
VERTEX
8
L1D1
10
34.501
20
46.168
0
VERTEX
8
L1D1
10
34.501
20
81.502
0
VERTEX
8
L1D1
10
11.5
20
81.502
0
VERTEX
8
L1D1
10
11.5
20
46.168
0
VERTEX
8
L1D1
10
1.167
20
46.168
0
VERTEX
8
L1D1
10
1.167
20
81.502
0
VERTEX
8
L1D1
10
-21.5
20
81.502
0
VERTEX
8
L1D1
10
-21.5
20
46.168
0
VERTEX
8
L1D1
10
-31.834
20
46.168
0
VERTEX
8
L1D1
10
-31.834
20
81.502
0
VERTEX
8
L1D1
10
-54.668
20
81.502
0
VERTEX
8
L1D1
10
-54.668
20
46.168
0
VERTEX
8
L1D1
10
-65.001
20
46.168
0
VERTEX
8
L1D1
10
-65.001
20
81.502
0
VERTEX
8
L1D1
10
-87.668
20
81.502
0
VERTEX
8
L1D1
10
-87.668
20
46.168
0
VERTEX
8
L1D1
10
-98.002
20
46.168
0
VERTEX
8
L1D1
10
-98.002
20
81.502
0
VERTEX
8
L1D1
10
-121.336
20
81.502
0
VERTEX
8
L1D1
10
-121.336
20
46.168
0
VERTEX
8
L1D1
10
-148.836
20
46.168
0
VERTEX
8
L1D1
10
-398.841
20
254.505
0
VERTEX
8
L1D1
10
-768.849
20
254.505
0
VERTEX
8
L1D1
10
-768.849
20
-185.504
0
VERTEX
8
L1D1
10
-398.841
20
-185.504
0
VERTEX
8
L1D1
10
-148.836
20
23
0
VERTEX
8
L1D1
10
-121.336
20
23
0
VERTEX
8
L1D1
10
-121.336
20
-12.334
0
VERTEX
8
L1D1
10
-98.002
20
-12.334
0
VERTEX
8
L1D1
10
-98.002
20
23
0
VERTEX
8
L1D1
10
-87.668
20
23
0
VERTEX
8
L1D1
10
-87.668
20
-12.334
0
VERTEX
8
L1D1
10
-65.001
20
-12.334
0
VERTEX
8
L1D1
10
-65.001
20
23
0
VERTEX
8
L1D1
10
-54.668
20
23
0
VERTEX
8
L1D1
10
-54.668
20
-12.334
0
VERTEX
8
L1D1
10
-31.834
20
-12.334
0
VERTEX
8
L1D1
10
-31.834
20
23
0
VERTEX
8
L1D1
10
-21.5
20
23
0
VERTEX
8
L1D1
10
-21.5
20
-12.334
0
VERTEX
8
L1D1
10
1.167
20
-12.334
0
VERTEX
8
L1D1
10
1.167
20
23
0
VERTEX
8
L1D1
10
11.5
20
23
0
VERTEX
8
L1D1
10
11.5
20
-12.334
0
VERTEX
8
L1D1
10
34.501
20
-12.334
0
VERTEX
8
L1D1
10
34.501
20
23
0
VERTEX
8
L1D1
10
44.834
20
23
0
VERTEX
8
L1D1
10
44.834
20
-12.334
0
VERTEX
8
L1D1
10
67.501
20
-12.334
0
VERTEX
8
L1D1
10
67.501
20
23
0
VERTEX
8
L1D1
10
77.835
20
23
0
VERTEX
8
L1D1
10
77.835
20
-12.334
0
VERTEX
8
L1D1
10
100.669
20
-12.334
0
VERTEX
8
L1D1
10
100.669
20
23
0
VERTEX
8
L1D1
10
111.002
20
23
0
VERTEX
8
L1D1
10
111.002
20
-12.334
0
VERTEX
8
L1D1
10
133.669
20
-12.334
0
VERTEX
8
L1D1
10
133.669
20
23
0
VERTEX
8
L1D1
10
144.003
20
23
0
VERTEX
8
L1D1
10
144.003
20
-12.334
0
VERTEX
8
L1D1
10
167.337
20
-12.334
0
VERTEX
8
L1D1
10
167.337
20
23
0
VERTEX
8
L1D1
10
177.67
20
23
0
VERTEX
8
L1D1
10
177.67
20
-12.334
0
VERTEX
8
L1D1
10
200.337
20
-12.334
0
VERTEX
8
L1D1
10
200.337
20
23
0
VERTEX
8
L1D1
10
210.671
20
23
0
VERTEX
8
L1D1
10
210.671
20
-12.334
0
VERTEX
8
L1D1
10
233.505
20
-12.334
0
VERTEX
8
L1D1
10
233.505
20
23
0
VERTEX
8
L1D1
10
243.838
20
23
0
VERTEX
8
L1D1
10
243.838
20
-12.334
0
VERTEX
8
L1D1
10
266.505
20
-12.334
0
VERTEX
8
L1D1
10
266.505
20
23
0
VERTEX
8
L1D1
10
276.839
20
23
0
VERTEX
8
L1D1
10
276.839
20
-12.334
0
VERTEX
8
L1D1
10
299.839
20
-12.334
0
VERTEX
8
L1D1
10
299.839
20
23
0
VERTEX
8
L1D1
10
310.173
20
23
0
VERTEX
8
L1D1
10
310.173
20
-12.334
0
VERTEX
8
L1D1
10
332.84
20
-12.334
0
VERTEX
8
L1D1
10
332.84
20
23
0
VERTEX
8
L1D1
10
343.174
20
23
0
VERTEX
8
L1D1
10
343.174
20
-12.334
0
VERTEX
8
L1D1
10
366.007
20
-12.334
0
VERTEX
8
L1D1
10
366.007
20
23
0
VERTEX
8
L1D1
10
376.341
20
23
0
VERTEX
8
L1D1
10
376.341
20
-12.334
0
VERTEX
8
L1D1
10
399.008
20
-12.334
0
VERTEX
8
L1D1
10
399.008
20
23
0
VERTEX
8
L1D1
10
409.342
20
23
0
VERTEX
8
L1D1
10
409.342
20
-12.334
0
VERTEX
8
L1D1
10
432.342
20
-12.334
0
VERTEX
8
L1D1
10
432.342
20
23
0
VERTEX
8
L1D1
10
442.676
20
23
0
VERTEX
8
L1D1
10
442.676
20
-12.334
0
VERTEX
8
L1D1
10
465.343
20
-12.334
0
VERTEX
8
L1D1
10
465.343
20
23
0
VERTEX
8
L1D1
10
475.676
20
23
0
VERTEX
8
L1D1
10
475.676
20
-12.334
0
VERTEX
8
L1D1
10
498.51
20
-12.334
0
VERTEX
8
L1D1
10
498.51
20
23
0
VERTEX
8
L1D1
10
508.844
20
23
0
VERTEX
8
L1D1
10
508.844
20
-12.334
0
VERTEX
8
L1D1
10
531.511
20
-12.334
0
VERTEX
8
L1D1
10
531.511
20
23
0
VERTEX
8
L1D1
10
561.345
20
23
0
VERTEX
8
L1D1
10
811.35
20
-185.504
0
VERTEX
8
L1D1
10
1181.357
20
-185.504
0
VERTEX
8
L1D1
10
1181.357
20
254.505
0
VERTEX
8
L1D1
10
-883.018
20
254.505
0
VERTEX
8
L1D1
10
-883.018
20
380.674
0
VERTEX
8
L1D1
10
1293.693
20
380.674
0
VERTEX
8
L1D1
10
1293.693
20
-315.84
0
SEQEND
0
ENDSEC
0
EOF
