<?xml version="1.0" encoding="UTF-8" standalone="yes"?>
<svg xmlns="http://www.w3.org/2000/svg" xmlns:xlink="http://www.w3.org/1999/xlink" width="1093.949pt" height="792.741pt" version="1.1" viewBox="-398.277 321.091 1093.949 792.741">
  <!--
	Exported with Concepts: Smarter Sketching
	Version: 2023.11.5 on Microsoft Windows NT 10.0.22621.0
	https://concepts.app/
	-->
  <title>Untitled</title>
  <desc>Drawing exported from Concepts: Smarter Sketching</desc>
  <defs></defs>
  <g id="Pen" opacity="1.000">
    <path id="STROKE_b15b7c06-502e-4915-acd2-25269ed5075b" opacity="1.000" fill="none" stroke="#000000" stroke-width="8.000" stroke-opacity="1.000" stroke-linecap="round" stroke-linejoin="round" d="M -268.776 511.205 Q -267.792 511.376 -268.912 529.391 Q -270.033 547.407 -270.783 557.525 Q -271.533 567.643 -272.282 578.755 Q -273.030 589.867 -273.432 595.325 Q -273.834 600.783 -274.569 608.814 Q -275.303 616.844 -275.852 622.729 Q -276.402 628.614 -278.729 653.752 Q -278.802 653.159 -278.729 642.431 "></path>
    <path id="STROKE_df67412a-774f-462f-ad3c-2273c7f7333e" opacity="1.000" fill="none" stroke="#000000" stroke-width="8.000" stroke-opacity="1.000" stroke-linecap="round" stroke-linejoin="round" d="M -298.266 504.201 Q -298.011 503.219 -292.564 501.624 Q -287.117 500.029 -277.791 499.316 Q -268.465 498.603 -260.906 497.575 Q -253.348 496.546 -223.805 492.563 "></path>
    <path id="STROKE_f41dbaa1-f900-44fc-8ee1-deb639936ce7" opacity="1.000" fill="none" stroke="#000000" stroke-width="8.000" stroke-opacity="1.000" stroke-linecap="round" stroke-linejoin="round" d="M -185.258 491.036 Q -185.416 491.297 -185.942 501.869 Q -186.468 512.441 -187.285 520.062 Q -188.102 527.684 -189.167 536.978 Q -190.232 546.273 -192.413 562.968 Q -194.594 579.663 -195.938 588.612 Q -197.281 597.561 -198.446 606.813 Q -199.610 616.065 -200.028 621.111 Q -200.446 626.157 -200.546 628.719 Q -200.645 631.281 -200.841 634.056 Q -201.037 636.832 -200.371 641.693 Q -200.237 641.592 -198.949 639.903 "></path>
    <path id="STROKE_bdc36e39-3f97-4050-a14b-924a0683aed6" opacity="1.000" fill="none" stroke="#000000" stroke-width="8.000" stroke-opacity="1.000" stroke-linecap="round" stroke-linejoin="round" d="M -131.229 487.719 Q -131.449 487.977 -131.894 497.546 Q -132.338 507.115 -134.258 528.656 Q -136.177 550.197 -137.446 563.990 Q -138.714 577.783 -139.149 584.032 Q -139.584 590.281 -140.572 600.414 Q -141.560 610.548 -142.540 617.717 Q -143.520 624.886 -144.305 628.958 Q -145.089 633.029 -147.395 636.533 "></path>
    <path id="STROKE_8ac74eaa-8ace-4cb3-b5eb-ab501b783983" opacity="1.000" fill="none" stroke="#000000" stroke-width="8.000" stroke-opacity="1.000" stroke-linecap="round" stroke-linejoin="round" d="M -187.417 567.023 Q -186.605 567.172 -181.186 567.541 Q -175.767 567.910 -163.692 564.106 Q -151.616 560.302 -143.681 557.954 Q -135.746 555.605 -131.235 554.589 Q -126.725 553.572 -123.066 552.752 "></path>
    <path id="STROKE_365ecc63-d082-4912-98c1-eba7debb0a48" opacity="1.000" fill="none" stroke="#000000" stroke-width="8.000" stroke-opacity="1.000" stroke-linecap="round" stroke-linejoin="round" d="M -67.457 505.939 Q -68.849 505.814 -69.782 511.143 Q -70.715 516.472 -71.679 526.194 Q -72.642 535.916 -73.327 542.151 Q -74.013 548.386 -74.786 554.024 Q -75.560 559.662 -77.193 575.352 Q -78.825 591.042 -79.517 605.878 Q -80.208 620.714 -80.254 633.373 "></path>
    <path id="STROKE_664e7f7c-ad78-4efd-83d6-724abdeff13e" opacity="1.000" fill="none" stroke="#000000" stroke-width="8.000" stroke-opacity="1.000" stroke-linecap="round" stroke-linejoin="round" d="M 10.743 503.832 Q 10.458 502.607 8.842 501.563 Q 7.225 500.519 2.549 501.889 Q -2.126 503.259 -6.630 505.647 Q -11.134 508.035 -15.792 510.905 Q -20.449 513.775 -24.216 517.786 Q -27.983 521.796 -29.594 523.952 Q -31.206 526.108 -32.823 528.161 Q -34.440 530.215 -35.466 532.780 Q -36.492 535.345 -36.474 537.554 Q -36.457 539.764 -35.658 542.122 Q -34.860 544.480 -32.209 546.634 Q -29.557 548.787 -21.535 551.198 Q -13.512 553.609 -8.416 554.969 Q -3.320 556.329 0.941 558.561 Q 5.203 560.793 9.736 564.668 Q 14.269 568.543 16.998 571.002 Q 19.728 573.460 20.628 574.625 Q 21.527 575.790 23.306 579.112 Q 25.085 582.433 25.738 587.256 Q 26.391 592.080 26.048 595.772 Q 25.705 599.465 24.612 602.627 Q 23.519 605.790 22.256 607.741 Q 20.993 609.691 18.025 612.756 Q 15.056 615.821 10.018 618.646 Q 4.979 621.472 0.611 623.074 Q -3.758 624.676 -7.271 625.449 Q -10.784 626.223 -15.516 625.551 Q -20.248 624.879 -26.067 621.999 "></path>
    <path id="STROKE_54a693c3-21a3-4c9e-a9a8-f5b684d91b32" opacity="1.000" fill="none" stroke="#000000" stroke-width="8.000" stroke-opacity="1.000" stroke-linecap="round" stroke-linejoin="round" d="M 134.336 514.048 Q 134.927 514.698 135.470 522.300 Q 136.012 529.902 135.978 534.831 Q 135.944 539.759 134.467 552.260 Q 132.989 564.761 131.391 574.515 Q 129.793 584.269 128.470 593.031 Q 127.148 601.794 126.288 607.288 Q 125.428 612.783 124.965 618.027 Q 124.502 623.271 125.884 628.950 Q 126.410 629.082 126.700 629.055 "></path>
    <path id="STROKE_706df9fa-fd8a-4a18-8dc9-cf38c120b143" opacity="1.000" fill="none" stroke="#000000" stroke-width="8.000" stroke-opacity="1.000" stroke-linecap="round" stroke-linejoin="round" d="M 224.911 499.304 Q 224.937 499.092 223.708 497.718 Q 222.480 496.345 218.358 496.039 Q 214.237 495.732 206.834 498.516 Q 199.431 501.300 193.442 504.766 Q 187.452 508.232 184.645 510.246 Q 181.837 512.259 180.452 513.386 Q 179.067 514.512 176.418 517.056 Q 173.769 519.601 171.939 522.075 Q 170.109 524.550 168.508 527.411 Q 166.907 530.271 166.937 533.478 Q 166.967 536.684 168.436 539.962 Q 169.904 543.240 173.098 546.246 Q 176.292 549.253 180.370 551.420 Q 184.449 553.587 189.267 555.146 Q 194.086 556.706 202.741 560.353 Q 211.397 564.001 215.844 566.202 Q 220.291 568.402 223.213 570.030 Q 226.136 571.658 227.673 573.182 Q 229.211 574.707 229.914 576.909 Q 230.616 579.110 230.632 580.103 Q 230.647 581.095 230.424 583.357 Q 230.201 585.618 229.256 588.794 Q 228.311 591.969 223.992 596.857 Q 219.672 601.745 215.300 605.273 Q 210.927 608.802 206.913 611.691 Q 202.900 614.581 180.413 617.207 "></path>
    <path id="STROKE_3ea865e7-63de-4f0e-99bb-67f0dd1d8d85" opacity="1.000" fill="none" stroke="#000000" stroke-width="8.000" stroke-opacity="1.000" stroke-linecap="round" stroke-linejoin="round" d="M -361.616 763.230 Q -362.480 763.779 -366.619 768.638 Q -370.758 773.497 -373.607 779.518 Q -376.456 785.538 -378.108 790.765 Q -379.761 795.992 -380.556 799.213 Q -381.352 802.433 -381.873 804.610 Q -382.395 806.787 -383.280 810.970 Q -384.164 815.152 -384.982 820.338 Q -385.799 825.524 -386.264 831.352 Q -386.729 837.180 -386.034 842.804 Q -385.338 848.427 -383.815 853.182 Q -382.292 857.936 -380.775 860.998 Q -379.257 864.061 -376.156 866.896 Q -373.054 869.732 -368.588 872.085 Q -364.121 874.438 -359.619 875.786 Q -355.116 877.133 -349.972 877.599 Q -344.827 878.064 -339.613 877.643 Q -334.398 877.222 -328.929 876.281 Q -323.461 875.340 -318.599 873.527 Q -313.738 871.713 -309.523 868.774 Q -305.309 865.836 -302.316 863.148 Q -299.324 860.461 -294.501 854.047 Q -289.679 847.633 -287.084 843.408 Q -284.488 839.183 -282.956 836.657 Q -281.423 834.131 -280.686 832.724 Q -279.949 831.316 -278.224 826.738 Q -276.500 822.159 -274.739 816.474 Q -272.978 810.789 -272.406 804.815 Q -271.834 798.840 -271.984 794.642 Q -272.133 790.443 -273.004 784.984 Q -273.875 779.524 -275.118 775.050 Q -276.361 770.575 -279.937 765.155 Q -283.513 759.736 -286.548 756.171 Q -289.582 752.606 -292.076 750.477 Q -294.571 748.347 -299.222 746.286 Q -303.873 744.224 -308.540 743.014 Q -313.206 741.804 -321.197 741.683 Q -329.189 741.562 -336.512 742.728 Q -343.835 743.894 -347.637 744.544 Q -351.440 745.194 -356.858 747.214 Q -362.276 749.234 -365.335 750.865 Q -368.395 752.496 -370.805 753.964 Q -373.215 755.432 -375.278 756.674 Q -377.342 757.915 -378.309 761.808 "></path>
    <path id="STROKE_9c0f1709-dc6a-445e-862b-a56df75e00e9" opacity="1.000" fill="none" stroke="#000000" stroke-width="8.000" stroke-opacity="1.000" stroke-linecap="round" stroke-linejoin="round" d="M -318.066 830.528 Q -317.598 830.626 -312.210 836.300 Q -306.822 841.975 -303.530 845.594 Q -300.237 849.214 -297.062 854.992 Q -293.887 860.771 -292.122 863.863 Q -290.356 866.954 -286.105 872.870 Q -281.853 878.785 -277.149 891.244 Q -277.476 890.938 -279.150 885.926 "></path>
    <path id="STROKE_c1b3fb35-2da1-4408-a4a9-77a69d3e4bf5" opacity="1.000" fill="none" stroke="#000000" stroke-width="8.000" stroke-opacity="1.000" stroke-linecap="round" stroke-linejoin="round" d="M -241.341 753.172 Q -241.032 755.011 -241.025 754.831 Q -240.843 755.845 -239.639 761.228 Q -238.434 766.610 -239.401 780.300 Q -240.367 793.990 -240.838 800.878 Q -241.308 807.765 -241.485 811.139 Q -241.663 814.513 -241.763 822.619 Q -241.864 830.724 -241.597 836.375 Q -241.331 842.027 -240.219 848.002 Q -239.107 853.977 -237.483 858.636 Q -235.859 863.295 -234.325 866.036 Q -232.791 868.777 -231.386 870.870 Q -229.980 872.963 -227.400 874.803 Q -224.821 876.643 -221.527 877.183 Q -218.233 877.722 -215.284 877.472 Q -212.335 877.222 -210.452 876.760 Q -208.570 876.298 -204.722 874.426 Q -200.874 872.555 -197.702 870.595 Q -194.531 868.634 -190.073 862.783 Q -185.616 856.932 -182.065 850.596 Q -178.513 844.261 -176.468 839.859 Q -174.422 835.457 -172.954 830.592 Q -171.485 825.726 -170.723 822.402 Q -169.961 819.078 -169.073 811.959 Q -168.186 804.840 -168.470 797.498 Q -168.755 790.157 -169.020 786.357 Q -169.284 782.556 -169.498 780.184 Q -169.712 777.812 -170.491 773.669 Q -171.270 769.526 -171.777 765.179 "></path>
    <path id="STROKE_867edb25-8fe2-4c71-aa2c-7e044e7cd0c5" opacity="1.000" fill="none" stroke="#000000" stroke-width="8.000" stroke-opacity="1.000" stroke-linecap="round" stroke-linejoin="round" d="M -136.653 763.546 Q -136.782 763.321 -134.816 765.155 Q -132.851 766.988 -131.450 773.611 Q -130.049 780.233 -129.537 784.014 Q -129.024 787.796 -128.775 790.052 Q -128.526 792.307 -127.759 802.495 Q -126.991 812.683 -127.155 827.740 Q -127.318 842.798 -127.663 851.976 Q -128.009 861.155 -129.385 871.128 Q -129.537 870.902 -129.754 868.969 "></path>
    <path id="STROKE_9d24aa28-9fa7-4d3d-be73-f1279a5b808e" opacity="1.000" fill="none" stroke="#000000" stroke-width="8.000" stroke-opacity="1.000" stroke-linecap="round" stroke-linejoin="round" d="M -76.094 752.119 Q -76.888 753.143 -74.926 759.964 Q -72.964 766.786 -71.936 771.442 Q -70.907 776.099 -69.862 780.730 Q -68.817 785.360 -68.087 791.385 Q -67.358 797.410 -66.590 801.244 Q -65.822 805.078 -64.456 863.335 Q -64.277 863.200 -65.035 853.330 "></path>
    <path id="STROKE_48ad691b-3687-4d18-8477-7280caf379d8" opacity="1.000" fill="none" stroke="#000000" stroke-width="8.000" stroke-opacity="1.000" stroke-linecap="round" stroke-linejoin="round" d="M -98.790 741.587 Q -98.639 741.206 -91.428 739.879 Q -84.218 738.551 -72.913 736.021 Q -61.609 733.490 -56.013 732.119 Q -50.417 730.748 -47.576 730.289 Q -44.735 729.831 -38.543 728.663 Q -32.350 727.495 -25.487 726.527 "></path>
    <path id="STROKE_fbbaaebd-cc62-4c0e-964f-380745737e24" opacity="1.000" fill="none" stroke="#000000" stroke-width="8.000" stroke-opacity="1.000" stroke-linecap="round" stroke-linejoin="round" d="M 52.344 727.949 Q 52.735 726.394 43.460 726.176 Q 34.185 725.958 27.738 726.449 Q 21.291 726.939 17.596 727.807 Q 13.901 728.674 12.689 728.982 Q 11.478 729.290 7.498 730.591 Q 3.518 731.891 0.829 733.077 Q -1.860 734.264 -3.275 735.339 Q -4.689 736.415 -5.604 738.377 Q -6.518 740.340 -3.575 742.889 Q -0.632 745.438 1.382 747.465 Q 3.397 749.492 4.768 753.796 Q 6.139 758.100 6.855 762.958 Q 7.572 767.816 6.934 775.132 Q 6.296 782.448 4.710 789.167 Q 3.125 795.886 0.870 801.732 Q -1.384 807.578 -3.538 814.174 Q -5.691 820.770 -6.867 825.417 Q -8.042 830.064 -8.387 834.161 Q -8.732 838.258 -8.386 840.988 Q -8.040 843.717 -7.245 845.734 Q -6.451 847.752 -4.271 849.537 Q -2.091 851.322 2.275 852.343 Q 6.641 853.364 11.883 852.682 Q 17.125 852.000 19.716 851.372 Q 22.307 850.745 25.571 849.592 Q 28.835 848.440 32.447 845.863 Q 36.058 843.287 42.549 833.425 "></path>
    <path id="STROKE_e6db01a1-6567-4ae5-a42e-9612438347fd" opacity="1.000" fill="none" stroke="#000000" stroke-width="8.000" stroke-opacity="1.000" stroke-linecap="round" stroke-linejoin="round" d="M -6.688 785.874 Q -6.372 785.328 12.028 782.649 Q 30.429 779.969 51.185 776.132 "></path>
    <path id="STROKE_7b6fb445-4644-4e5e-bb76-bf22db3989f5" opacity="1.000" fill="none" stroke="#000000" stroke-width="8.000" stroke-opacity="1.000" stroke-linecap="round" stroke-linejoin="round" d="M -252.504 953.118 Q -252.413 952.311 -256.844 951.873 Q -261.276 951.436 -263.987 951.444 Q -266.699 951.452 -268.402 951.891 Q -270.105 952.330 -275.677 953.611 Q -281.250 954.891 -286.811 956.960 Q -292.371 959.029 -296.092 961.240 Q -299.813 963.451 -303.483 966.694 Q -307.153 969.936 -310.252 972.997 Q -313.352 976.058 -317.962 983.181 Q -322.573 990.304 -325.256 994.491 Q -327.938 998.679 -329.507 1002.215 Q -331.077 1005.751 -331.625 1009.016 Q -332.174 1012.282 -332.885 1016.881 Q -333.597 1021.480 -333.463 1027.626 Q -333.330 1033.772 -332.764 1037.367 Q -332.199 1040.962 -331.099 1045.085 Q -329.999 1049.208 -328.413 1053.310 Q -326.826 1057.412 -324.401 1060.333 Q -321.975 1063.255 -319.379 1067.971 Q -316.783 1072.688 -315.003 1075.697 Q -313.223 1078.705 -311.913 1080.292 Q -310.602 1081.878 -308.181 1083.408 Q -305.759 1084.938 -300.758 1087.975 Q -295.758 1091.011 -292.761 1092.864 Q -289.765 1094.716 -287.719 1095.505 Q -285.673 1096.294 -281.603 1097.208 Q -277.533 1098.122 -273.995 1098.134 Q -270.457 1098.147 -265.419 1097.026 Q -260.382 1095.906 -256.872 1094.499 Q -253.362 1093.092 -251.807 1092.395 Q -250.252 1091.697 -246.337 1089.568 Q -242.422 1087.440 -239.859 1086.271 Q -237.296 1085.101 -234.863 1081.238 "></path>
    <path id="STROKE_199fa9eb-84ea-4f85-8a0d-ad3f26aa12e0" opacity="1.000" fill="none" stroke="#000000" stroke-width="8.000" stroke-opacity="1.000" stroke-linecap="round" stroke-linejoin="round" d="M -205.110 962.018 Q -204.984 963.501 -204.031 967.608 Q -203.078 971.716 -201.804 975.060 Q -200.530 978.403 -198.098 986.199 Q -195.665 993.995 -194.086 1000.824 Q -192.507 1007.652 -191.655 1011.334 Q -190.803 1015.016 -189.254 1027.350 Q -187.705 1039.685 -187.108 1047.721 Q -186.510 1055.758 -186.430 1059.544 Q -186.350 1063.330 -186.473 1066.586 Q -186.595 1069.841 -186.944 1071.754 Q -187.293 1073.666 -187.436 1073.709 Q -187.578 1073.751 -188.500 1075.481 Q -189.422 1077.211 -192.659 1072.590 Q -195.895 1067.970 -197.919 1065.847 Q -199.944 1063.724 -201.760 1057.754 Q -203.577 1051.783 -204.537 1046.171 Q -205.498 1040.558 -206.199 1035.522 Q -206.901 1030.486 -207.270 1022.458 Q -207.639 1014.430 -207.049 1006.114 Q -206.460 997.798 -205.349 991.171 Q -204.239 984.544 -202.846 980.454 Q -201.452 976.363 -200.225 972.424 Q -198.997 968.484 -196.677 964.210 Q -194.357 959.936 -192.542 958.015 Q -190.727 956.094 -188.409 952.761 Q -186.090 949.429 -184.495 946.949 Q -182.900 944.469 -180.719 942.931 Q -178.538 941.393 -175.556 940.226 Q -172.574 939.059 -169.815 939.182 Q -167.057 939.305 -164.895 940.308 Q -162.733 941.310 -161.101 943.975 Q -159.470 946.641 -158.174 949.994 Q -156.879 953.347 -156.922 959.172 Q -156.965 964.996 -158.513 972.796 Q -160.062 980.595 -162.028 986.700 Q -163.995 992.804 -166.352 997.572 Q -168.709 1002.339 -172.905 1008.901 Q -177.101 1015.464 -179.709 1019.101 Q -182.317 1022.738 -183.432 1025.042 Q -184.547 1027.347 -184.743 1028.463 Q -184.939 1029.579 -184.980 1030.624 Q -185.020 1031.668 -179.553 1031.701 Q -174.086 1031.734 -168.812 1032.840 Q -163.539 1033.946 -157.436 1036.238 Q -151.334 1038.530 -146.212 1041.502 Q -141.090 1044.474 -138.532 1046.502 Q -135.974 1048.530 -131.979 1051.770 Q -127.984 1055.011 -124.177 1058.406 Q -120.369 1061.801 -117.748 1065.334 "></path>
    <path id="STROKE_61d1fefb-bc5a-4b68-b614-b55470601043" opacity="1.000" fill="none" stroke="#000000" stroke-width="8.000" stroke-opacity="1.000" stroke-linecap="round" stroke-linejoin="round" d="M -61.086 933.898 Q -63.655 934.772 -67.117 942.088 Q -70.579 949.404 -72.644 957.761 Q -74.709 966.118 -75.636 970.527 Q -76.563 974.935 -77.008 977.547 Q -77.453 980.159 -82.017 998.502 Q -86.581 1016.845 -89.351 1028.373 Q -92.120 1039.901 -93.512 1047.205 Q -94.903 1054.508 -100.317 1071.969 Q -100.406 1071.229 -100.164 1064.297 Q -99.922 1057.365 -98.013 1041.553 Q -96.104 1025.742 -95.111 1016.303 Q -94.118 1006.865 -92.147 997.731 Q -90.176 988.598 -88.698 984.142 Q -87.221 979.686 -84.857 972.578 Q -82.494 965.471 -80.049 958.742 Q -77.603 952.013 -76.053 948.466 Q -74.503 944.920 -72.767 942.183 Q -71.031 939.446 -68.228 937.109 Q -65.426 934.772 -63.202 933.668 Q -60.978 932.564 -59.934 932.355 Q -58.890 932.147 -56.586 933.275 Q -54.282 934.403 -50.553 941.417 Q -46.824 948.431 -44.306 952.957 Q -41.787 957.483 -38.302 969.330 Q -34.817 981.177 -32.714 989.932 Q -30.610 998.688 -29.088 1003.473 Q -27.566 1008.258 -26.518 1011.067 Q -25.471 1013.876 -23.630 1017.803 Q -21.788 1021.730 -21.108 1023.963 Q -20.427 1026.196 -20.044 1027.465 Q -19.660 1028.734 -20.274 1033.739 "></path>
    <path id="STROKE_bdbb1ece-ab18-418e-8e6b-f64ff077a8cf" opacity="1.000" fill="none" stroke="#000000" stroke-width="8.000" stroke-opacity="1.000" stroke-linecap="round" stroke-linejoin="round" d="M -80.148 1000.775 Q -80.756 1000.918 -77.043 1001.763 Q -73.330 1002.608 -64.608 1002.121 Q -55.886 1001.634 -47.514 1000.017 Q -39.143 998.400 -35.238 997.512 Q -31.333 996.624 -25.490 994.730 Q -19.646 992.835 -11.690 988.505 "></path>
    <path id="STROKE_338f0c13-7851-4422-939a-061c8c35fc19" opacity="1.000" fill="none" stroke="#000000" stroke-width="8.000" stroke-opacity="1.000" stroke-linecap="round" stroke-linejoin="round" d="M -6.635 933.108 Q -5.423 934.716 1.010 934.230 Q 7.442 933.744 17.248 930.231 Q 27.054 926.718 32.617 924.324 Q 38.180 921.929 42.553 920.888 Q 46.926 919.847 50.167 919.478 Q 53.408 919.109 55.159 919.155 Q 56.909 919.201 57.887 919.537 Q 58.864 919.873 59.668 921.017 Q 60.473 922.161 59.743 925.856 Q 59.013 929.551 55.921 937.035 Q 52.828 944.519 49.922 950.190 Q 47.016 955.862 44.612 960.453 Q 42.208 965.044 41.300 966.853 Q 40.391 968.662 38.382 973.303 Q 36.373 977.944 34.195 983.497 Q 32.016 989.049 27.535 995.710 Q 23.054 1002.372 20.405 1006.482 Q 17.757 1010.593 16.146 1013.349 Q 14.535 1016.105 12.598 1019.479 Q 10.660 1022.853 9.724 1025.044 Q 8.788 1027.234 8.404 1029.830 Q 8.021 1032.427 10.655 1034.062 Q 13.290 1035.698 21.886 1035.853 Q 30.483 1036.008 39.700 1035.553 Q 48.917 1035.099 56.933 1034.336 Q 64.950 1033.573 72.149 1032.025 Q 79.348 1030.476 85.678 1028.842 "></path>
    <path id="STROKE_274628c5-dbba-4afb-b8c0-cdf5006d3ec1" opacity="1.000" fill="none" stroke="#000000" stroke-width="8.000" stroke-opacity="1.000" stroke-linecap="round" stroke-linejoin="round" d="M 91.049 914.835 Q 91.734 914.745 94.615 919.480 Q 97.497 924.215 99.562 927.246 Q 101.628 930.277 104.345 932.608 Q 107.062 934.939 109.982 938.197 Q 112.902 941.454 115.914 945.701 Q 118.926 949.948 120.608 951.994 Q 122.289 954.040 125.335 956.477 Q 128.380 958.913 131.617 961.965 Q 134.854 965.016 140.339 972.181 Q 140.523 972.076 140.707 971.970 "></path>
    <path id="STROKE_10b46ba9-7155-4e30-a581-eda5ed2949c1" opacity="1.000" fill="none" stroke="#000000" stroke-width="8.000" stroke-opacity="1.000" stroke-linecap="round" stroke-linejoin="round" d="M 161.508 910.096 Q 162.172 911.167 160.229 913.504 Q 158.287 915.842 154.948 917.626 Q 151.609 919.409 148.584 921.960 Q 145.559 924.511 143.252 927.613 Q 140.946 930.716 138.054 934.274 Q 135.161 937.831 133.231 941.570 Q 131.301 945.309 129.907 949.116 Q 128.512 952.923 128.742 957.752 Q 128.971 962.580 129.484 965.784 Q 129.998 968.988 131.811 975.057 Q 133.625 981.125 134.807 986.394 Q 135.988 991.663 136.681 995.512 Q 137.374 999.362 138.046 1004.128 Q 138.718 1008.894 139.145 1012.104 Q 139.573 1015.315 139.444 1027.473 Q 139.338 1027.042 138.443 1024.787 "></path>
    <path id="STROKE_5c0ed891-3fa8-49b3-abb5-1ee2aa063f52" opacity="1.000" fill="none" stroke="#000000" stroke-width="8.000" stroke-opacity="1.000" stroke-linecap="round" stroke-linejoin="round" d="M 228.176 1003.408 Q 229.423 1004.232 229.023 1004.161 Q 228.623 1004.089 231.177 1003.934 Q 231.322 1004.215 231.422 1004.713 Q 231.522 1005.210 231.446 1005.293 Q 231.371 1005.376 231.304 1005.774 Q 231.238 1006.171 231.213 1006.220 Q 231.188 1006.268 231.117 1006.539 Q 231.045 1006.810 230.387 1007.673 Q 229.336 1006.727 230.756 998.826 Q 230.698 998.133 231.177 1004.619 Q 232.003 1004.795 235.337 1000.406 Q 235.695 999.293 228.281 1009.569 Q 228.612 1008.876 232.178 1002.354 Q 232.482 1002.711 231.941 1006.209 Q 231.400 1009.708 231.357 1012.103 Q 231.314 1014.498 231.536 1015.870 Q 231.758 1017.242 232.552 1017.587 Q 233.347 1017.932 234.374 1018.099 Q 235.400 1018.266 236.339 1017.902 Q 237.278 1017.538 238.493 1015.416 Q 239.708 1013.294 239.653 1010.882 Q 239.597 1008.471 239.005 1007.263 Q 238.412 1006.056 237.585 1005.438 Q 236.758 1004.819 235.157 1004.395 Q 233.556 1003.971 232.092 1007.791 Q 230.628 1011.611 230.065 1015.236 Q 229.501 1018.861 229.520 1021.192 Q 229.540 1023.523 230.737 1025.108 Q 231.935 1026.693 233.425 1025.967 Q 234.916 1025.241 236.014 1023.438 Q 237.112 1021.635 237.462 1017.892 Q 237.811 1014.149 237.267 1010.038 Q 236.722 1005.927 234.179 1001.828 Q 233.122 1001.082 232.129 1006.116 Q 231.135 1011.149 230.862 1015.039 Q 230.590 1018.929 231.364 1021.845 Q 232.137 1024.761 233.562 1027.031 Q 234.986 1029.300 236.881 1030.620 Q 238.776 1031.940 240.315 1032.429 Q 241.854 1032.918 242.562 1032.875 Q 243.269 1032.833 243.769 1032.728 Q 244.269 1032.623 245.302 1031.985 Q 246.336 1031.346 247.446 1029.817 Q 248.556 1028.287 249.319 1025.704 Q 250.082 1023.121 249.694 1018.377 Q 249.307 1013.632 248.987 1010.932 Q 248.668 1008.231 248.120 1006.873 Q 247.573 1005.514 247.038 1005.117 Q 246.503 1004.720 245.103 1005.891 Q 243.704 1007.061 240.331 1012.603 Q 236.958 1018.145 234.073 1024.734 Q 234.600 1024.685 236.866 1022.824 Q 239.132 1020.963 240.498 1007.462 Q 240.297 1006.906 239.727 1007.414 Q 239.156 1007.923 238.024 1010.554 Q 236.892 1013.185 236.714 1016.052 Q 236.536 1018.918 236.644 1020.592 Q 236.752 1022.266 237.799 1023.874 Q 238.846 1025.483 240.069 1026.201 Q 241.292 1026.920 242.098 1026.927 Q 242.905 1026.934 243.197 1026.825 Q 243.488 1026.717 243.802 1026.695 Q 244.115 1026.674 245.189 1025.604 Q 246.264 1024.535 246.445 1023.211 Q 246.627 1021.887 246.724 1021.125 Q 246.822 1020.363 246.662 1018.988 Q 246.502 1017.613 245.280 1015.250 Q 244.057 1012.888 243.285 1011.474 Q 242.513 1010.061 241.251 1008.980 Q 239.990 1007.900 238.384 1009.143 Q 236.778 1010.386 236.226 1011.533 Q 235.674 1012.681 234.720 1014.845 Q 233.767 1017.009 236.575 1024.076 Q 236.263 1024.402 235.202 1024.828 Q 234.141 1025.255 232.410 1024.262 Q 230.679 1023.270 230.105 1022.577 Q 229.532 1021.885 229.170 1021.444 Q 228.808 1021.002 227.669 1019.318 Q 226.530 1017.634 226.357 1015.224 Q 226.183 1012.813 227.201 1010.441 Q 228.218 1008.069 229.208 1006.508 Q 230.198 1004.948 232.220 1003.819 Q 234.241 1002.691 237.547 1002.464 Q 240.852 1002.236 243.716 1002.636 Q 246.580 1003.035 248.823 1004.578 Q 251.065 1006.121 252.097 1009.903 Q 253.129 1013.684 253.416 1017.116 Q 253.703 1020.548 252.867 1023.522 Q 252.031 1026.495 250.431 1028.770 Q 248.831 1031.045 246.865 1031.890 Q 244.899 1032.735 242.377 1032.108 Q 239.856 1031.481 238.422 1030.566 Q 236.988 1029.651 235.618 1028.584 Q 234.249 1027.517 232.572 1025.567 Q 230.895 1023.617 230.350 1021.218 Q 229.805 1018.819 230.658 1015.616 Q 231.511 1012.414 232.687 1010.211 Q 233.863 1008.009 236.401 1006.552 Q 238.939 1005.094 241.662 1004.784 Q 244.385 1004.474 246.879 1005.305 Q 249.373 1006.136 251.054 1008.230 Q 252.734 1010.324 253.953 1013.157 Q 255.171 1015.990 255.764 1018.296 Q 256.358 1020.602 254.836 1023.494 Q 253.315 1026.386 251.657 1027.877 Q 249.999 1029.367 248.781 1029.947 Q 247.564 1030.526 246.449 1030.610 Q 245.333 1030.694 244.554 1030.648 Q 243.775 1030.601 241.286 1029.598 Q 238.798 1028.595 237.021 1026.757 Q 235.244 1024.918 234.546 1023.765 Q 233.847 1022.612 233.684 1020.536 Q 233.520 1018.459 234.705 1015.882 Q 235.891 1013.305 238.129 1011.588 Q 240.368 1009.870 242.914 1009.200 Q 245.460 1008.531 247.499 1008.592 Q 249.538 1008.653 251.405 1010.898 Q 253.272 1013.143 254.207 1015.715 Q 255.141 1018.287 255.060 1020.883 Q 254.979 1023.479 253.657 1025.227 Q 252.335 1026.976 250.191 1027.906 Q 248.046 1028.837 245.821 1028.334 Q 243.597 1027.832 241.089 1026.533 Q 238.580 1025.234 237.884 1024.094 Q 237.188 1022.954 236.971 1022.215 Q 236.754 1021.477 238.152 1019.439 Q 239.551 1017.402 244.447 1015.519 Q 246.072 1016.429 238.234 1025.156 Q 238.041 1025.349 238.445 1024.422 Q 238.848 1023.496 239.530 1022.484 Q 240.212 1021.473 244.237 1014.255 Q 243.580 1014.289 242.801 1016.683 Q 242.021 1019.076 243.267 1023.558 Q 244.512 1028.039 245.711 1032.949 Q 245.608 1032.327 245.370 1030.985 Q 245.133 1029.644 244.670 1027.818 Q 244.207 1025.992 243.851 1022.711 Q 243.495 1019.430 243.922 1016.179 Q 244.349 1012.929 246.607 1009.569 Q 248.112 1009.980 248.232 1013.496 Q 248.352 1017.012 247.905 1019.174 Q 247.459 1021.335 245.556 1025.091 Q 243.653 1028.846 241.284 1031.654 Q 238.915 1034.463 236.912 1035.899 Q 234.910 1037.334 233.745 1037.497 Q 232.579 1037.660 232.396 1035.850 Q 232.213 1034.040 232.981 1030.616 Q 233.749 1027.191 235.020 1025.225 Q 236.291 1023.258 239.906 1017.385 Q 243.521 1011.513 247.449 1005.777 Q 248.139 1006.261 247.677 1010.955 Q 247.215 1015.649 235.706 1035.003 Q 235.084 1033.559 235.659 1029.894 Q 236.233 1026.228 238.382 1022.372 Q 240.531 1018.515 243.447 1015.414 Q 244.199 1016.401 244.010 1016.250 Q 243.820 1016.099 244.078 1016.525 Q 244.336 1016.952 243.180 1019.805 Q 242.024 1022.658 231.019 1035.714 Q 228.298 1034.202 235.021 1011.201 Q 234.644 1011.883 233.661 1015.024 Q 232.677 1018.164 232.329 1020.404 Q 231.981 1022.644 231.955 1024.494 Q 231.930 1026.344 232.382 1027.355 Q 232.834 1028.365 233.393 1029.323 Q 233.952 1030.281 235.394 1029.884 Q 236.837 1029.487 237.276 1028.980 Q 237.716 1028.474 238.084 1028.005 Q 238.452 1027.536 238.920 1026.742 Q 239.388 1025.948 239.604 1025.304 Q 239.820 1024.659 239.743 1023.370 Q 239.666 1022.082 237.896 1020.340 Q 236.127 1018.598 234.664 1017.170 Q 233.201 1015.742 232.322 1015.606 Q 231.442 1015.470 230.904 1015.563 Q 230.367 1015.657 230.099 1015.940 Q 229.831 1016.224 229.131 1017.284 Q 228.430 1018.343 228.135 1019.220 Q 227.841 1020.097 227.981 1021.868 Q 228.122 1023.638 229.388 1026.662 Q 230.654 1029.687 232.310 1031.366 Q 233.965 1033.045 235.358 1033.710 Q 236.752 1034.374 238.920 1034.458 Q 241.088 1034.541 242.919 1032.424 Q 244.750 1030.307 245.558 1028.802 Q 246.365 1027.299 246.794 1025.916 Q 247.222 1024.534 246.852 1022.525 Q 246.482 1020.516 245.228 1018.637 Q 243.973 1016.758 242.984 1015.534 Q 241.996 1014.309 239.917 1013.986 Q 237.838 1013.663 236.298 1014.349 Q 234.758 1015.036 233.692 1016.277 Q 232.627 1017.517 232.325 1018.819 Q 232.024 1020.120 232.026 1021.285 Q 232.029 1022.451 232.331 1023.534 Q 232.633 1024.617 233.717 1026.099 Q 234.801 1027.581 235.726 1028.363 Q 236.650 1029.145 238.124 1030.292 Q 239.599 1031.439 241.413 1032.250 Q 243.228 1033.060 244.659 1033.170 Q 246.091 1033.280 247.398 1032.539 Q 248.706 1031.798 250.106 1030.271 Q 251.506 1028.743 252.211 1026.594 Q 252.916 1024.446 252.665 1023.294 Q 252.413 1022.143 252.057 1020.891 Q 251.701 1019.639 250.286 1017.717 Q 248.871 1015.796 247.329 1014.149 Q 245.788 1012.503 244.029 1012.539 Q 242.270 1012.574 240.387 1013.609 Q 238.505 1014.644 237.214 1015.821 Q 235.923 1016.997 234.960 1018.498 Q 233.997 1019.999 233.805 1023.324 Q 233.613 1026.649 234.148 1029.223 Q 234.682 1031.798 236.131 1033.774 Q 237.580 1035.751 239.426 1036.798 Q 241.272 1037.845 243.140 1037.781 Q 245.007 1037.718 246.347 1036.760 Q 247.687 1035.801 248.692 1033.531 Q 249.698 1031.262 250.212 1028.348 Q 250.726 1025.435 250.264 1022.280 Q 249.802 1019.125 249.306 1017.399 Q 248.810 1015.673 248.103 1013.693 Q 247.397 1011.712 245.743 1009.554 Q 244.088 1007.396 241.310 1008.592 Q 238.532 1009.788 236.325 1012.182 Q 234.118 1014.576 233.126 1018.468 "></path>
    <path id="STROKE_72e19e9a-53fe-47b9-8d97-d47ac28d9778" opacity="1.000" fill="none" stroke="#000000" stroke-width="8.000" stroke-opacity="1.000" stroke-linecap="round" stroke-linejoin="round" d="M 235.601 971.444 Q 235.496 971.663 235.722 970.568 Q 235.947 969.472 236.422 967.111 Q 236.897 964.749 237.556 962.167 Q 238.215 959.584 238.817 957.329 Q 239.418 955.073 239.878 951.325 Q 240.339 947.577 240.609 944.989 Q 240.880 942.401 241.455 937.034 Q 242.029 931.667 242.206 924.211 Q 242.383 916.756 243.551 903.287 Q 244.719 889.819 245.396 883.037 Q 246.073 876.256 246.258 871.123 Q 246.443 865.991 246.483 863.571 Q 246.522 861.152 246.374 857.899 Q 246.226 854.646 245.845 852.427 Q 245.465 850.208 243.078 848.748 Q 242.471 848.894 242.003 850.580 Q 241.534 852.265 241.892 856.189 Q 242.251 860.112 242.720 873.247 Q 243.190 886.383 243.013 898.831 Q 242.835 911.279 242.104 920.715 Q 241.374 930.150 240.668 937.083 Q 239.962 944.015 237.812 963.966 Q 236.411 963.976 237.749 940.483 Q 239.087 916.991 240.362 902.741 Q 241.636 888.490 242.252 881.276 Q 242.869 874.062 244.026 869.338 Q 244.296 869.840 244.927 877.955 Q 245.558 886.070 245.789 900.995 Q 246.020 915.919 245.544 928.526 Q 245.067 941.132 243.236 952.065 Q 242.408 951.425 242.226 939.705 Q 242.044 927.985 242.685 920.160 Q 243.327 912.334 243.755 908.325 Q 244.182 904.315 244.775 899.237 Q 245.368 894.160 246.758 883.926 Q 248.148 873.693 248.945 867.215 Q 249.741 860.738 252.083 854.909 Q 254.439 854.843 254.502 876.265 Q 254.565 897.687 254.135 909.211 Q 253.705 920.735 253.210 927.704 Q 252.715 934.673 252.350 938.451 Q 251.985 942.228 251.139 948.078 Q 250.292 953.929 247.133 960.227 Q 245.091 960.657 245.604 945.652 Q 246.118 930.648 246.999 920.894 Q 247.881 911.141 248.432 906.449 Q 248.982 901.757 249.502 897.677 Q 250.022 893.596 250.522 888.864 Q 251.022 884.131 252.152 877.056 Q 253.281 869.981 254.337 865.785 Q 255.394 861.589 256.612 858.228 Q 257.831 854.867 261.825 851.776 Q 264.015 852.431 262.719 865.682 Q 261.424 878.932 260.220 886.803 Q 259.017 894.673 258.090 899.720 Q 257.164 904.768 256.457 910.001 Q 255.749 915.234 253.650 926.016 Q 251.551 936.798 250.408 942.209 Q 249.265 947.620 248.594 950.580 Q 247.923 953.541 244.658 959.227 Q 242.514 959.366 244.254 940.697 Q 245.994 922.027 247.522 910.941 Q 249.049 899.856 249.713 894.766 Q 250.377 889.677 251.661 883.136 Q 252.945 876.596 254.239 872.425 Q 255.532 868.254 257.089 864.186 Q 258.646 860.119 262.826 857.779 Q 264.546 858.238 265.362 864.841 Q 266.178 871.444 265.249 884.498 Q 264.321 897.553 262.882 907.555 Q 261.442 917.558 260.365 923.661 Q 259.289 929.764 253.189 944.851 Q 251.852 943.494 252.387 931.624 Q 252.921 919.754 254.071 910.787 Q 255.221 901.819 257.271 892.231 Q 259.321 882.642 261.453 875.276 Q 263.585 867.911 265.147 863.707 Q 266.709 859.503 270.040 854.225 Q 269.471 854.030 270.568 854.456 Q 271.665 854.883 271.283 863.100 Q 270.901 871.317 269.465 879.610 Q 268.030 887.902 267.149 891.910 Q 266.268 895.919 262.646 906.912 Q 259.024 917.905 256.499 924.655 Q 253.973 931.405 248.081 944.324 Q 247.551 944.088 248.998 932.374 Q 250.446 920.661 252.091 911.058 Q 253.737 901.455 255.583 894.460 Q 257.428 887.465 258.862 883.232 Q 260.295 878.999 262.781 872.136 Q 265.267 865.274 267.408 860.984 Q 269.550 856.693 270.902 854.314 Q 272.254 851.934 275.517 850.960 Q 277.093 851.261 277.330 857.570 Q 277.568 863.878 276.543 872.846 Q 275.519 881.815 274.221 890.306 Q 272.923 898.798 272.489 902.892 Q 272.056 906.986 270.555 914.329 Q 269.054 921.672 268.052 925.422 Q 267.050 929.172 265.090 935.521 Q 263.131 941.870 260.286 948.148 Q 257.442 954.427 253.084 960.754 Q 252.251 960.038 252.935 950.276 Q 253.619 940.514 256.816 925.061 Q 260.013 909.609 262.373 899.691 Q 264.732 889.773 266.734 881.649 Q 268.736 873.526 272.199 866.389 Q 273.596 865.841 272.562 875.483 Q 271.527 885.124 270.466 891.371 Q 269.404 897.619 267.577 905.338 Q 265.750 913.058 263.106 920.146 Q 260.462 927.234 257.426 935.059 Q 254.390 942.884 252.681 947.935 Q 250.973 952.985 247.554 957.120 Q 245.934 956.079 248.294 938.725 Q 250.654 921.372 252.352 911.203 Q 254.051 901.033 256.229 892.765 Q 258.406 884.498 261.289 877.096 Q 264.171 869.693 266.144 865.335 Q 268.118 860.977 269.278 858.387 Q 270.439 855.797 273.410 853.303 Q 275.710 853.276 274.643 868.830 Q 273.576 884.384 272.035 894.314 Q 270.495 904.244 269.692 908.688 Q 268.889 913.131 266.976 919.678 Q 265.062 926.225 262.387 932.167 Q 259.711 938.109 257.689 942.785 Q 255.666 947.462 253.610 951.854 Q 253.055 950.593 253.151 950.821 Q 253.247 951.050 253.028 949.565 Q 252.809 948.080 252.877 944.558 Q 252.946 941.035 253.594 932.923 Q 254.243 924.810 256.099 911.654 Q 257.956 898.498 259.073 891.929 Q 260.190 885.360 261.335 879.705 Q 262.480 874.049 268.460 859.859 Q 269.150 859.437 268.973 866.868 Q 268.797 874.299 267.762 882.660 Q 266.727 891.020 265.310 899.492 Q 263.894 907.963 262.819 913.556 Q 261.744 919.148 261.180 921.766 Q 260.616 924.385 260.061 926.807 Q 259.506 929.229 258.652 933.399 Q 257.798 937.568 256.566 943.674 Q 255.334 949.780 252.241 960.754 Q 251.685 959.779 252.254 948.317 Q 252.824 936.855 253.397 929.632 Q 253.970 922.409 254.716 914.482 Q 255.462 906.555 256.832 898.412 Q 258.202 890.269 259.326 884.841 Q 260.449 879.414 269.145 858.174 Q 270.040 859.016 269.673 871.977 Q 269.305 884.938 267.435 897.864 Q 265.564 910.791 264.598 918.424 Q 263.632 926.057 258.192 940.954 Q 257.332 941.520 257.074 932.549 Q 256.817 923.579 257.058 914.021 Q 257.298 904.464 257.528 897.480 Q 257.757 890.496 258.236 882.694 Q 258.715 874.892 259.680 868.175 Q 260.646 861.457 262.562 856.015 Q 263.677 857.175 262.379 874.772 Q 261.082 892.369 254.821 917.732 Q 253.197 917.883 253.200 903.163 Q 253.203 888.443 253.529 876.242 Q 253.856 864.042 256.033 846.958 Q 255.707 847.538 254.611 862.665 Q 253.515 877.792 250.345 896.563 Q 250.161 896.615 249.977 896.668 Q 249.340 896.230 249.203 888.217 Q 249.065 880.203 249.027 875.949 Q 248.989 871.696 249.575 867.060 Q 250.161 862.425 250.505 859.901 Q 250.850 857.376 251.663 855.969 Q 252.476 854.562 253.347 853.488 Q 254.496 854.004 254.137 853.856 Q 253.937 853.665 254.132 853.711 Q 254.326 853.756 254.258 855.225 Q 254.190 856.695 253.175 857.407 Q 252.160 858.119 251.369 858.358 Q 250.579 858.597 249.350 858.344 Q 248.122 858.091 247.731 857.792 Q 247.340 857.492 246.876 857.133 Q 246.413 856.773 246.407 856.721 Q 246.402 856.670 245.789 856.171 Q 245.176 855.673 244.512 854.778 Q 243.849 853.884 245.549 852.976 Q 247.249 852.069 248.927 851.561 Q 250.605 851.052 251.714 850.865 Q 252.823 850.677 255.949 850.958 Q 259.074 851.238 261.592 851.018 Q 264.110 850.798 267.433 851.700 Q 270.755 852.601 275.517 852.013 Q 276.026 851.973 270.273 851.732 Q 264.520 851.490 261.559 851.208 Q 258.597 850.926 257.279 850.789 Q 255.960 850.651 254.854 850.149 Q 253.748 849.647 251.925 849.696 Q 251.925 849.907 251.925 850.117 Q 251.044 850.428 258.175 851.582 Q 265.305 852.735 273.252 853.172 Q 273.892 851.871 253.558 853.488 Q 253.596 853.726 253.983 854.399 Q 254.370 855.071 258.021 856.151 Q 261.673 857.232 264.066 857.778 Q 266.460 858.324 270.777 858.701 Q 270.786 858.709 269.395 859.533 Q 268.003 860.357 254.716 863.967 Q 254.026 864.367 256.744 862.305 Q 259.462 860.242 261.021 858.764 Q 262.581 857.285 263.430 856.369 Q 264.280 855.453 264.584 854.705 Q 264.888 853.957 262.552 852.828 Q 260.215 851.699 258.775 851.177 Q 257.335 850.656 255.570 850.713 Q 253.805 850.770 248.766 852.276 Q 249.133 852.446 248.934 852.297 Q 248.735 852.147 265.617 852.856 Q 266.164 853.263 248.555 853.540 "></path>
    <path id="STROKE_f34ee770-d77a-41d8-b120-fec1c0946357" opacity="1.000" fill="none" stroke="#000000" stroke-width="8.000" stroke-opacity="1.000" stroke-linecap="round" stroke-linejoin="round" d="M 477.731 642.220 Q 475.931 642.066 468.941 646.811 Q 461.952 651.556 458.039 654.241 Q 454.127 656.926 452.331 658.538 Q 450.535 660.149 448.314 662.945 Q 446.094 665.741 443.307 669.276 Q 440.520 672.812 438.522 675.107 Q 436.523 677.403 433.206 682.408 Q 429.888 687.413 427.095 694.081 Q 424.301 700.750 422.899 704.438 Q 421.497 708.126 419.779 713.946 Q 418.060 719.766 417.533 723.597 Q 417.005 727.428 416.723 731.175 Q 416.442 734.923 417.613 741.139 Q 418.785 747.356 420.722 752.513 Q 422.658 757.670 424.382 761.027 Q 426.105 764.383 428.770 767.644 Q 431.436 770.904 434.030 773.628 Q 436.625 776.352 441.589 779.546 Q 446.554 782.741 449.376 784.184 Q 452.198 785.627 455.935 787.167 Q 459.672 788.707 465.034 790.550 Q 470.396 792.393 476.186 793.447 Q 481.976 794.500 485.627 794.894 Q 489.278 795.289 494.357 795.068 Q 499.435 794.847 504.443 793.943 Q 509.450 793.039 514.806 791.720 Q 520.162 790.401 526.675 788.375 Q 533.188 786.350 537.235 784.796 Q 541.282 783.242 543.272 782.002 Q 545.262 780.763 547.020 779.728 Q 548.778 778.693 553.653 773.980 Q 558.528 769.267 561.992 765.450 Q 565.457 761.632 568.490 756.591 Q 571.523 751.550 573.701 745.216 Q 575.879 738.883 576.843 732.536 Q 577.808 726.188 578.189 720.416 Q 578.569 714.643 578.610 711.845 Q 578.650 709.047 578.536 704.138 Q 578.421 699.230 577.136 693.374 Q 575.850 687.517 573.957 681.851 Q 572.064 676.185 566.883 668.589 Q 561.702 660.993 558.476 656.612 Q 555.250 652.231 551.622 648.786 Q 547.995 645.341 543.199 642.235 Q 538.403 639.129 533.066 636.978 Q 527.729 634.826 522.313 633.214 Q 516.898 631.602 512.201 630.681 Q 507.504 629.761 503.356 629.846 Q 499.208 629.930 496.143 630.333 Q 493.077 630.735 485.841 635.532 "></path>
    <path id="STROKE_ad7000f1-2578-49dc-b998-a24b5891da36" opacity="1.000" fill="none" stroke="#000000" stroke-width="8.000" stroke-opacity="1.000" stroke-linecap="round" stroke-linejoin="round" d="M 459.879 689.666 Q 459.661 689.649 458.604 688.768 Q 457.546 687.888 455.436 689.075 Q 453.326 690.263 452.047 692.342 Q 450.769 694.421 450.302 695.954 Q 449.835 697.487 450.030 698.685 Q 450.226 699.884 450.848 700.635 Q 451.471 701.386 453.349 701.966 Q 455.228 702.546 458.130 702.701 Q 461.032 702.856 462.538 702.584 Q 464.044 702.312 465.816 701.498 Q 467.587 700.683 468.963 699.885 Q 470.339 699.087 472.009 697.722 Q 473.680 696.358 474.689 694.717 Q 475.699 693.077 475.546 691.885 Q 475.393 690.694 474.226 688.612 Q 473.060 686.531 469.864 686.255 Q 466.669 685.979 463.913 686.633 Q 461.158 687.287 459.643 688.106 Q 458.129 688.926 456.905 690.001 Q 455.682 691.077 455.254 692.258 Q 454.827 693.438 455.525 695.051 Q 456.223 696.665 460.019 697.714 Q 463.815 698.764 468.037 698.527 Q 472.259 698.290 475.478 697.234 Q 478.698 696.178 480.590 695.089 Q 482.482 694.001 483.576 692.852 Q 484.670 691.703 484.927 690.084 Q 485.184 688.465 482.409 687.226 Q 479.633 685.987 477.156 685.768 Q 474.679 685.549 470.856 686.779 Q 467.034 688.008 464.884 689.021 Q 462.734 690.033 459.467 692.153 Q 456.201 694.272 454.695 695.829 Q 453.189 697.387 452.971 698.038 Q 452.753 698.690 452.958 699.375 Q 453.162 700.060 454.810 700.512 Q 456.457 700.964 459.723 700.961 Q 462.989 700.958 464.881 700.693 Q 466.774 700.429 470.447 699.378 Q 474.120 698.326 476.187 697.414 Q 478.255 696.502 479.159 695.890 Q 480.063 695.278 480.759 694.260 Q 481.454 693.242 480.714 692.196 Q 479.974 691.151 479.284 690.717 Q 478.595 690.282 476.426 689.605 Q 474.257 688.928 470.965 689.912 Q 467.673 690.897 464.520 692.456 Q 461.366 694.015 458.694 697.749 Q 458.595 698.749 462.155 699.477 Q 465.715 700.205 469.223 699.742 Q 472.731 699.278 475.841 698.399 Q 478.950 697.521 480.589 697.010 Q 482.228 696.498 483.310 695.841 Q 484.393 695.184 485.049 693.120 Q 485.705 691.057 484.140 690.469 Q 482.576 689.881 481.062 689.800 Q 479.548 689.718 478.496 689.961 Q 477.445 690.203 476.824 690.268 Q 476.204 690.334 473.683 691.273 Q 471.163 692.212 469.034 694.400 Q 466.906 696.589 466.372 697.851 Q 465.839 699.113 465.755 700.025 Q 465.671 700.936 466.599 701.972 Q 467.527 703.008 470.412 702.580 Q 473.297 702.152 477.015 700.860 Q 480.733 699.569 482.610 698.462 Q 484.488 697.354 485.265 696.082 Q 486.043 694.809 486.110 693.844 Q 486.177 692.880 485.610 692.164 Q 485.043 691.448 484.249 691.200 Q 483.455 690.951 480.026 691.764 Q 476.596 692.576 473.701 694.228 Q 470.807 695.879 469.253 700.355 Q 470.604 700.567 470.362 700.595 Q 470.121 700.623 472.875 700.238 Q 475.629 699.854 477.995 699.163 Q 480.362 698.472 483.366 695.037 Q 483.336 695.594 483.356 694.633 Q 483.376 693.673 479.444 693.711 Q 475.512 693.749 470.043 697.407 Q 469.958 698.723 472.441 698.268 Q 474.924 697.813 476.380 697.318 Q 477.836 696.822 477.902 696.664 Q 477.968 696.505 478.384 696.001 Q 478.801 695.498 478.569 694.762 Q 478.337 694.027 478.148 693.980 Q 477.958 693.933 477.924 693.885 Q 477.890 693.838 477.124 693.392 Q 476.358 692.946 474.209 692.611 Q 472.060 692.275 469.346 693.559 Q 466.633 694.842 464.664 696.494 Q 462.694 698.146 461.135 699.714 Q 459.575 701.282 459.781 702.291 Q 459.986 703.299 460.570 704.088 Q 461.155 704.878 463.626 705.131 Q 466.097 705.384 468.933 704.428 Q 471.769 703.472 474.397 702.234 Q 477.026 700.995 478.732 698.934 Q 478.469 698.516 478.539 698.367 Q 478.610 698.218 478.145 697.884 Q 477.680 697.550 476.891 697.171 Q 476.101 696.793 475.706 696.782 Q 475.312 696.772 474.791 696.395 Q 474.271 696.017 470.664 696.480 Q 467.056 696.942 465.225 697.547 Q 463.393 698.153 461.747 698.604 Q 460.100 699.056 459.577 699.195 Q 459.054 699.334 458.089 699.724 Q 457.896 702.785 479.574 697.354 Q 479.792 696.011 477.640 694.916 Q 475.488 693.820 473.135 694.016 Q 470.782 694.211 469.695 694.542 Q 468.607 694.872 467.726 695.297 Q 466.845 695.722 466.072 696.557 Q 465.299 697.391 465.077 697.945 Q 464.854 698.500 464.982 698.849 Q 465.110 699.198 465.611 699.602 Q 466.112 700.005 466.321 700.019 Q 466.530 700.032 467.715 700.450 Q 468.900 700.868 470.318 701.250 Q 471.736 701.633 477.187 701.097 Q 482.637 700.561 487.815 698.328 Q 487.665 698.521 487.701 697.660 Q 487.738 696.800 484.410 695.672 Q 481.083 694.544 477.307 694.753 Q 473.531 694.963 471.268 695.384 Q 469.005 695.805 464.925 697.105 Q 460.844 698.405 457.966 699.357 Q 455.087 700.310 453.719 701.270 Q 452.352 702.230 451.878 703.001 Q 451.404 703.773 451.959 704.626 Q 452.515 705.480 456.476 706.356 Q 460.437 707.232 465.017 707.024 Q 469.597 706.817 474.734 705.705 Q 479.870 704.593 482.274 704.005 Q 484.678 703.418 486.058 702.824 Q 487.437 702.230 487.755 701.963 Q 488.074 701.695 487.844 701.721 Q 487.615 701.748 488.389 700.947 Q 489.163 700.146 487.791 698.616 Q 486.419 697.086 482.881 695.961 Q 479.343 694.837 475.209 695.061 Q 471.075 695.285 468.678 695.772 Q 466.281 696.259 462.550 697.005 Q 458.819 697.751 455.377 701.277 Q 455.042 702.403 459.492 703.580 Q 463.943 704.757 468.378 704.584 Q 472.813 704.411 476.073 703.387 Q 479.333 702.364 481.095 701.660 Q 482.857 700.956 483.629 699.727 Q 484.400 698.499 484.091 696.404 Q 483.783 694.309 482.262 692.783 Q 480.740 691.258 478.833 690.399 Q 476.925 689.541 474.094 690.130 Q 471.263 690.719 469.704 691.804 Q 468.145 692.889 466.454 694.293 Q 464.763 695.697 464.725 697.501 Q 464.688 699.305 465.242 700.295 Q 465.797 701.285 466.355 701.612 Q 466.914 701.940 467.917 702.776 Q 468.920 703.611 472.346 703.265 Q 475.771 702.919 477.732 702.651 Q 479.692 702.384 481.653 701.349 Q 483.614 700.314 483.184 698.666 Q 482.754 697.019 480.166 695.406 Q 477.579 693.793 475.250 692.643 Q 472.922 691.493 469.901 691.665 Q 466.881 691.837 461.855 693.404 Q 456.829 694.972 452.296 697.617 "></path>
    <path id="STROKE_87fa580f-86e6-4d61-b674-9260814b603e" opacity="1.000" fill="none" stroke="#000000" stroke-width="8.000" stroke-opacity="1.000" stroke-linecap="round" stroke-linejoin="round" d="M 530.338 683.768 Q 530.194 683.674 528.670 682.564 Q 527.147 681.454 523.860 681.530 Q 520.574 681.605 518.018 682.814 Q 515.462 684.023 513.755 685.087 Q 512.048 686.151 510.816 688.296 Q 509.584 690.441 509.189 692.251 Q 508.794 694.062 508.649 695.762 Q 508.504 697.462 509.739 698.924 Q 510.974 700.386 511.576 700.790 Q 512.178 701.194 514.024 702.378 Q 515.870 703.563 520.429 703.701 Q 524.987 703.838 527.861 703.839 Q 530.736 703.839 534.216 702.402 Q 537.696 700.965 539.907 699.677 Q 542.119 698.388 543.291 696.580 Q 544.462 694.773 544.486 692.592 Q 544.510 690.411 543.438 688.788 Q 542.365 687.165 541.511 686.628 Q 540.657 686.092 539.206 685.665 Q 537.755 685.238 536.823 685.047 Q 535.891 684.856 532.543 684.833 Q 529.195 684.811 526.801 684.955 Q 524.406 685.099 521.368 685.804 Q 518.331 686.510 516.472 687.427 Q 514.612 688.343 512.984 690.067 Q 511.356 691.790 512.305 693.698 Q 513.254 695.606 514.935 696.411 Q 516.615 697.215 517.982 697.487 Q 519.350 697.759 519.997 697.876 Q 520.644 697.992 521.222 698.075 Q 521.801 698.157 522.157 698.151 Q 522.513 698.145 523.141 698.299 Q 523.770 698.454 527.499 698.439 Q 531.229 698.424 535.148 697.923 Q 539.067 697.423 541.670 696.377 Q 544.273 695.332 545.366 694.222 Q 546.459 693.112 546.764 692.342 Q 547.068 691.573 546.338 689.419 Q 545.607 687.266 542.489 686.462 Q 539.371 685.657 534.927 686.067 Q 530.483 686.476 527.443 687.369 Q 524.403 688.262 521.682 689.460 Q 518.960 690.659 517.461 692.101 Q 515.961 693.543 515.772 695.339 Q 515.583 697.134 517.387 698.146 Q 519.192 699.159 522.366 699.503 Q 525.539 699.847 528.120 699.715 Q 530.701 699.584 532.745 698.956 Q 534.790 698.328 535.538 698.120 Q 536.287 697.912 536.842 696.370 Q 537.397 694.827 536.805 693.016 Q 536.214 691.205 534.763 690.313 Q 533.312 689.421 528.823 690.352 Q 524.333 691.283 521.348 692.889 Q 518.363 694.494 516.996 695.367 Q 515.629 696.240 515.366 696.890 Q 515.102 697.540 514.923 697.871 Q 514.743 698.202 515.892 699.203 Q 517.042 700.203 520.474 700.075 Q 523.907 699.946 525.959 699.600 Q 528.010 699.254 529.564 698.480 Q 531.118 697.706 531.865 696.734 Q 532.613 695.763 532.427 694.322 Q 532.241 692.882 532.112 692.525 Q 531.983 692.169 530.514 690.626 Q 529.045 689.083 524.594 689.898 Q 520.142 690.713 517.503 691.626 Q 514.864 692.538 513.235 693.739 Q 511.606 694.939 511.337 695.521 Q 511.068 696.102 511.605 697.084 Q 512.142 698.066 515.675 698.441 Q 519.208 698.816 523.503 698.203 Q 527.797 697.591 530.839 696.752 Q 533.881 695.913 535.552 692.167 Q 535.247 691.552 532.745 691.127 Q 530.243 690.703 526.242 691.119 Q 522.240 691.535 519.961 692.234 Q 517.681 692.934 516.525 693.478 Q 515.369 694.023 514.031 695.046 Q 512.693 696.070 512.840 695.858 Q 512.988 695.646 513.052 696.384 Q 513.117 697.123 513.590 697.609 Q 514.062 698.095 518.456 698.247 Q 522.851 698.399 525.116 698.056 Q 527.381 697.713 529.696 697.270 Q 532.011 696.826 533.922 695.760 Q 535.833 694.694 536.453 693.623 Q 537.073 692.553 537.084 690.675 Q 537.094 688.796 534.550 688.262 Q 532.007 687.727 528.168 688.677 Q 524.330 689.628 521.770 690.787 Q 519.209 691.946 517.648 693.504 Q 516.087 695.062 515.656 696.272 Q 515.224 697.481 515.778 698.444 Q 516.331 699.408 519.462 699.851 Q 522.593 700.295 524.500 700.412 Q 526.407 700.529 529.519 700.172 Q 532.631 699.816 534.469 699.081 Q 536.307 698.345 537.723 697.433 Q 539.140 696.521 539.087 695.021 Q 539.035 693.521 538.355 691.896 Q 537.675 690.270 537.118 689.734 Q 536.561 689.197 534.393 688.030 Q 532.225 686.863 528.138 687.324 Q 524.051 687.786 521.152 688.409 Q 518.253 689.032 516.306 690.345 Q 514.360 691.657 513.510 692.608 Q 512.660 693.559 512.542 694.218 Q 512.425 694.877 513.013 695.391 Q 513.601 695.904 514.485 696.738 Q 515.368 697.572 519.678 697.787 Q 523.987 698.002 527.001 697.526 Q 530.015 697.050 531.520 696.770 Q 533.025 696.489 535.209 695.297 Q 537.392 694.105 538.108 692.600 Q 538.823 691.094 538.779 690.469 Q 538.735 689.844 538.093 688.499 Q 537.451 687.154 534.065 687.603 Q 530.680 688.051 527.057 689.487 Q 523.433 690.923 521.119 692.289 Q 518.804 693.655 517.645 694.798 Q 516.485 695.940 516.123 697.135 Q 515.760 698.331 518.105 699.101 Q 520.450 699.871 524.231 699.776 Q 528.013 699.682 531.085 698.621 Q 534.157 697.560 535.360 697.060 Q 536.563 696.560 537.318 696.009 Q 538.074 695.458 538.023 695.629 Q 537.972 695.801 538.221 694.352 Q 538.470 692.904 535.995 692.956 Q 533.520 693.008 528.820 694.093 Q 524.120 695.177 513.750 699.776 Q 514.142 700.748 518.847 700.072 Q 523.552 699.395 528.062 698.209 Q 532.573 697.022 535.657 694.036 Q 535.531 693.971 534.514 694.361 Q 533.496 694.751 523.756 699.302 Q 523.489 699.814 527.142 699.287 Q 530.795 698.759 533.528 697.433 Q 536.260 696.106 537.404 695.436 Q 538.549 694.765 539.235 694.175 Q 539.921 693.586 540.008 693.327 Q 540.094 693.068 539.640 692.493 Q 539.185 691.918 539.071 691.905 Q 538.957 691.892 538.400 691.856 Q 537.843 691.820 538.097 691.555 Q 538.351 691.290 535.269 691.882 Q 532.187 692.474 529.971 693.489 Q 527.755 694.503 524.282 697.143 Q 524.929 697.579 526.961 697.804 Q 528.994 698.030 532.011 697.068 Q 535.029 696.105 536.667 695.260 Q 538.305 694.415 539.247 693.144 Q 540.189 691.873 540.233 691.362 Q 540.277 690.851 539.248 690.033 Q 538.220 689.216 537.310 688.985 Q 536.400 688.753 535.449 688.680 Q 534.498 688.607 534.267 688.519 Q 534.036 688.432 531.543 688.589 Q 529.051 688.745 526.409 689.955 Q 523.768 691.164 522.415 692.189 Q 521.061 693.215 520.374 694.083 Q 519.687 694.951 519.436 695.690 Q 519.185 696.430 519.741 697.191 Q 520.298 697.952 522.380 698.278 Q 524.462 698.603 526.456 698.310 Q 528.451 698.017 530.373 697.655 Q 532.296 697.293 533.871 695.966 Q 535.446 694.638 535.886 693.603 Q 536.326 692.568 535.981 690.944 Q 535.637 689.319 534.535 688.323 Q 533.433 687.327 531.460 686.193 Q 529.487 685.059 526.025 685.105 Q 522.564 685.150 520.040 685.639 Q 517.516 686.127 515.699 687.291 Q 513.882 688.456 513.022 689.558 Q 512.163 690.660 512.258 691.853 Q 512.353 693.046 512.594 693.516 Q 512.835 693.987 513.584 694.703 Q 514.332 695.420 515.165 695.859 Q 515.998 696.298 516.398 696.582 Q 516.799 696.866 520.438 697.432 Q 524.077 697.997 527.356 697.489 Q 530.634 696.981 532.275 696.372 Q 533.917 695.763 535.061 695.209 Q 536.206 694.656 536.912 693.061 Q 537.618 691.466 537.297 690.215 Q 536.976 688.965 536.851 688.262 Q 536.725 687.560 534.507 686.496 Q 532.288 685.431 528.977 686.046 Q 525.665 686.661 522.889 687.613 Q 520.114 688.564 518.009 690.398 Q 515.905 692.232 515.197 693.988 Q 514.490 695.745 516.215 697.203 Q 517.940 698.660 522.469 698.587 Q 526.997 698.515 529.144 698.205 Q 531.291 697.896 533.897 697.061 Q 536.502 696.226 538.289 695.400 Q 540.076 694.575 540.844 691.956 Q 540.173 691.168 538.064 690.685 Q 535.955 690.203 516.331 696.933 Q 515.259 698.387 520.424 698.193 Q 525.589 698.000 528.678 696.995 Q 531.767 695.991 533.388 695.325 Q 535.009 694.659 536.343 693.457 Q 537.678 692.255 537.782 690.804 Q 537.887 689.353 537.767 688.511 Q 537.647 687.669 536.132 686.512 Q 534.617 685.356 532.126 685.421 Q 529.635 685.487 526.662 685.956 Q 523.689 686.425 521.258 687.343 Q 518.828 688.260 517.604 689.182 Q 516.380 690.104 515.935 690.672 Q 515.491 691.241 515.558 691.790 Q 515.625 692.338 516.039 692.991 Q 516.452 693.644 516.934 693.973 Q 517.415 694.302 517.828 694.337 Q 518.241 694.372 519.061 694.736 Q 519.881 695.100 522.549 695.215 Q 525.216 695.331 528.071 694.509 Q 530.925 693.687 532.196 692.528 Q 533.467 691.370 533.691 689.457 Q 533.914 687.545 533.247 686.852 Q 532.581 686.159 531.502 685.848 Q 530.424 685.536 529.712 685.311 Q 529.000 685.085 525.917 685.050 Q 522.834 685.014 519.189 685.780 Q 515.544 686.546 509.327 689.034 Q 509.811 688.860 509.787 689.057 Q 509.763 689.253 512.278 687.653 Q 514.793 686.053 516.290 684.945 Q 517.787 683.836 518.737 683.687 Q 519.686 683.538 520.498 683.487 Q 521.309 683.436 522.044 683.398 Q 522.778 683.360 523.238 683.350 Q 523.699 683.339 523.598 683.382 Q 523.496 683.426 524.360 683.376 Q 525.224 683.325 527.528 683.522 Q 529.831 683.719 531.472 684.266 Q 533.113 684.813 533.860 685.986 Q 534.606 687.159 534.816 688.351 Q 535.027 689.544 535.129 689.185 Q 535.232 688.826 534.806 690.889 Q 534.380 692.953 533.445 694.439 Q 532.510 695.924 532.120 696.231 Q 531.730 696.539 531.265 696.919 Q 530.801 697.300 529.529 697.228 Q 528.257 697.156 527.534 696.776 Q 526.810 696.395 526.727 696.286 Q 526.644 696.177 526.406 696.152 Q 526.168 696.127 525.766 694.467 Q 525.365 692.807 525.675 691.114 Q 525.986 689.422 526.344 688.357 Q 526.703 687.292 527.919 685.690 Q 529.136 684.087 531.095 683.504 Q 533.055 682.920 534.154 682.842 Q 535.253 682.765 536.320 682.589 Q 537.387 682.413 538.884 682.901 Q 540.380 683.388 541.093 683.723 Q 541.806 684.058 542.361 685.322 Q 542.915 686.586 543.088 688.133 Q 543.260 689.681 542.062 691.993 Q 540.864 694.305 538.602 695.883 Q 536.340 697.461 535.109 697.837 Q 533.878 698.212 532.016 698.589 Q 530.153 698.965 527.052 698.510 Q 523.952 698.054 522.215 697.321 Q 520.478 696.588 519.590 695.903 Q 518.702 695.218 518.189 694.188 Q 517.675 693.157 518.337 691.708 Q 519.000 690.260 520.391 689.566 Q 521.783 688.873 524.710 688.168 Q 527.638 687.463 530.131 687.420 Q 532.623 687.377 533.897 687.668 Q 535.172 687.959 536.633 688.972 Q 538.094 689.986 538.443 691.521 Q 538.792 693.056 538.777 694.216 Q 538.763 695.376 537.860 697.225 Q 536.957 699.075 534.232 700.410 Q 531.507 701.746 529.445 701.620 Q 527.383 701.495 525.861 700.839 Q 524.339 700.184 523.555 699.846 Q 522.771 699.509 522.828 697.673 Q 522.885 695.838 525.739 693.465 Q 528.592 691.093 530.449 690.278 Q 532.306 689.463 534.218 688.905 Q 536.130 688.346 539.406 688.875 Q 542.682 689.404 541.380 691.838 Q 540.078 694.273 538.544 695.670 Q 537.010 697.067 533.655 698.508 Q 530.300 699.949 525.968 698.986 Q 525.090 698.407 527.378 696.750 Q 529.666 695.093 531.447 694.489 Q 533.227 693.884 534.624 693.310 Q 536.021 692.737 541.134 693.562 Q 541.480 693.571 540.516 695.070 Q 539.551 696.570 537.550 697.197 Q 535.548 697.825 534.089 697.737 Q 532.629 697.648 532.105 697.533 Q 531.580 697.418 531.601 697.333 Q 531.622 697.247 531.551 696.818 Q 531.480 696.389 531.526 696.041 Q 531.572 695.694 531.530 695.745 Q 531.488 695.796 531.597 695.079 Q 531.705 694.362 532.813 692.790 Q 533.922 691.218 534.182 686.296 Q 534.288 685.564 526.915 685.769 Q 527.175 686.298 539.764 683.610 Q 538.695 683.614 532.930 684.242 Q 527.165 684.871 523.392 685.250 Q 519.619 685.630 517.015 687.507 Q 516.472 687.632 517.745 688.493 Q 519.017 689.354 520.345 689.534 Q 521.672 689.713 522.624 690.056 Q 523.575 690.400 530.602 688.165 Q 530.550 688.664 530.594 687.259 Q 530.637 685.854 529.466 685.431 Q 528.295 685.007 525.000 684.510 Q 521.705 684.013 519.456 684.127 Q 517.206 684.241 516.085 684.353 Q 514.964 684.464 514.456 684.577 Q 513.948 684.689 514.045 684.658 Q 514.141 684.627 513.664 684.909 Q 513.187 685.191 513.184 685.569 Q 513.182 685.947 514.123 686.978 Q 515.064 688.010 518.832 688.459 Q 522.600 688.909 524.877 688.782 Q 527.153 688.656 528.537 688.164 Q 529.921 687.671 530.826 687.406 Q 531.730 687.141 532.329 686.604 Q 532.929 686.068 533.057 685.454 Q 533.186 684.841 532.782 684.360 Q 532.378 683.880 532.228 683.614 Q 532.077 683.348 530.538 682.859 Q 528.998 682.371 526.743 682.646 Q 524.487 682.921 522.958 683.386 Q 521.429 683.852 520.553 684.434 Q 519.677 685.016 519.642 685.610 Q 519.608 686.205 519.803 686.532 Q 519.998 686.860 520.087 687.304 Q 520.175 687.747 522.281 688.577 Q 524.388 689.406 526.499 689.800 Q 528.610 690.193 530.618 689.776 Q 532.627 689.359 533.456 689.026 Q 534.285 688.693 534.828 687.943 Q 535.370 687.192 535.350 686.616 Q 535.331 686.040 535.217 685.445 Q 535.103 684.850 534.779 684.232 Q 534.455 683.614 532.817 683.608 Q 531.180 683.602 529.651 684.020 Q 528.123 684.438 527.820 684.511 Q 527.517 684.584 525.663 685.259 Q 523.808 685.935 522.277 686.887 Q 520.745 687.839 521.386 693.773 "></path>
    <path id="STROKE_83bb34c6-bba6-449a-aba5-6e3c5334c2c3" opacity="1.000" fill="none" stroke="#000000" stroke-width="8.000" stroke-opacity="1.000" stroke-linecap="round" stroke-linejoin="round" d="M 476.678 698.196 Q 476.801 698.201 476.448 697.801 Q 476.095 697.401 476.609 696.733 Q 477.122 696.066 477.876 695.707 Q 478.629 695.348 479.090 695.295 Q 479.551 695.242 479.987 695.217 Q 480.423 695.192 481.011 695.151 Q 481.599 695.110 482.442 695.002 Q 483.285 694.895 484.080 694.894 Q 484.875 694.893 491.831 694.602 Q 498.786 694.310 503.856 693.560 Q 508.925 692.810 514.751 693.194 Q 513.655 693.518 513.671 693.457 Q 511.059 693.736 483.208 694.352 Q 482.531 694.182 488.305 693.514 Q 494.080 692.846 498.334 692.981 Q 502.588 693.116 506.075 693.013 Q 509.561 692.910 514.698 691.667 Q 514.590 690.902 484.419 694.089 Q 484.833 693.571 513.329 691.035 Q 513.168 690.965 483.050 694.089 "></path>
    <path id="STROKE_851ba383-06a8-44c8-b0f8-0e8f1db62ede" opacity="1.000" fill="none" stroke="#000000" stroke-width="8.000" stroke-opacity="1.000" stroke-linecap="round" stroke-linejoin="round" d="M 452.086 698.670 Q 452.597 698.137 453.139 697.565 Q 452.924 697.529 452.145 698.033 Q 451.366 698.537 448.167 698.533 Q 444.968 698.529 443.434 698.393 Q 441.900 698.257 441.046 698.497 Q 440.191 698.736 437.243 699.024 Q 434.294 699.312 432.848 699.303 Q 431.403 699.294 430.403 699.330 Q 429.403 699.365 428.845 699.446 Q 428.287 699.526 427.407 699.677 Q 426.526 699.828 426.949 699.715 Q 427.371 699.601 425.440 700.355 Q 425.120 700.714 448.347 699.724 Q 448.215 699.524 447.596 699.754 Q 446.977 699.985 439.228 700.510 Q 431.478 701.036 421.701 701.409 "></path>
    <path id="STROKE_c75f2296-1523-4473-80d8-0a1b25f8fa54" opacity="1.000" fill="none" stroke="#000000" stroke-width="8.000" stroke-opacity="1.000" stroke-linecap="round" stroke-linejoin="round" d="M 537.395 692.088 Q 537.640 691.837 538.138 691.398 Q 538.635 690.959 538.807 690.862 Q 538.979 690.764 539.196 690.658 Q 539.413 690.552 539.810 690.331 Q 540.208 690.110 540.590 690.024 Q 540.972 689.939 540.719 689.982 Q 540.467 690.025 541.575 689.758 Q 542.683 689.490 545.455 689.235 Q 548.227 688.979 551.561 688.582 Q 554.894 688.184 556.534 687.710 Q 558.174 687.236 559.015 687.083 Q 559.855 686.931 560.829 686.788 Q 561.802 686.646 562.455 686.531 Q 563.109 686.416 563.665 686.328 Q 564.221 686.240 564.190 686.226 Q 564.159 686.212 564.313 686.303 Q 564.468 686.394 569.886 685.400 Q 569.742 685.238 564.864 687.025 Q 559.987 688.812 555.070 689.927 Q 550.153 691.042 546.235 691.252 Q 542.316 691.462 538.395 691.193 Q 538.653 690.271 542.585 689.448 Q 546.516 688.625 551.186 687.920 Q 555.855 687.214 558.914 687.185 Q 561.973 687.157 563.394 687.143 Q 564.816 687.129 566.246 687.026 Q 567.676 686.924 567.869 687.051 Q 568.063 687.179 569.605 687.343 Q 571.147 687.507 573.151 687.033 Q 573.349 686.918 573.193 686.999 Q 573.038 687.079 572.999 687.103 Q 572.961 687.126 572.367 687.480 Q 571.772 687.833 571.796 687.831 Q 571.819 687.828 571.731 687.909 Q 571.642 687.991 571.308 688.349 "></path>
    <path id="STROKE_aa9f3dfb-1551-4235-b0e8-d9f5a1e34d09" opacity="1.000" fill="none" stroke="#000000" stroke-width="8.000" stroke-opacity="1.000" stroke-linecap="round" stroke-linejoin="round" d="M 465.040 744.273 Q 465.576 744.902 466.317 745.273 Q 467.057 745.645 468.568 746.817 Q 470.079 747.989 471.518 749.616 Q 472.956 751.243 474.656 752.331 Q 476.356 753.419 478.755 754.755 Q 481.153 756.091 484.809 758.026 Q 488.465 759.962 492.152 760.771 Q 495.839 761.580 499.659 761.402 Q 503.478 761.224 506.618 760.688 Q 509.757 760.153 513.823 756.639 Q 517.888 753.125 521.972 750.208 Q 526.055 747.291 528.502 745.199 Q 530.948 743.106 532.134 741.304 Q 533.320 739.501 534.091 738.426 Q 534.862 737.351 535.183 736.479 "></path>
    <path id="STROKE_76605c7d-8076-414b-90cb-d7efc06e5ce3" opacity="1.000" fill="none" stroke="#000000" stroke-width="8.000" stroke-opacity="1.000" stroke-linecap="round" stroke-linejoin="round" d="M 572.466 619.945 Q 573.795 619.533 578.787 612.932 Q 583.779 606.331 587.030 602.627 Q 590.282 598.923 592.109 596.717 Q 593.937 594.512 595.177 592.850 Q 596.418 591.188 598.330 587.546 Q 600.242 583.904 603.948 579.298 Q 607.654 574.693 610.564 571.202 Q 613.474 567.711 618.912 560.295 Q 624.351 552.878 627.719 548.162 Q 631.088 543.446 644.084 526.686 "></path>
    <path id="STROKE_c0e68f45-db3c-436b-be51-3e2851889000" opacity="1.000" fill="none" stroke="#000000" stroke-width="8.000" stroke-opacity="1.000" stroke-linecap="round" stroke-linejoin="round" d="M 591.845 709.044 Q 591.218 708.785 593.233 709.959 Q 595.247 711.133 604.309 709.623 Q 613.370 708.113 619.154 707.404 Q 624.938 706.695 628.892 706.172 Q 632.847 705.649 636.198 705.405 Q 639.548 705.160 641.359 705.040 Q 643.169 704.920 648.821 704.385 Q 654.472 703.850 657.890 703.492 Q 661.308 703.134 665.379 702.260 Q 669.450 701.386 683.947 698.091 "></path>
    <path id="STROKE_6a4405ec-e029-41fd-9445-c939a455bb7d" opacity="1.000" fill="none" stroke="#000000" stroke-width="8.000" stroke-opacity="1.000" stroke-linecap="round" stroke-linejoin="round" d="M 562.408 796.142 Q 561.847 797.212 565.861 801.825 Q 569.875 806.437 572.291 808.395 Q 574.707 810.352 576.829 814.925 Q 578.950 819.499 580.145 822.320 Q 581.339 825.140 582.799 827.158 Q 584.258 829.175 586.048 831.531 Q 587.838 833.887 590.718 838.655 Q 593.597 843.422 595.181 845.775 Q 596.765 848.127 599.305 853.778 Q 601.846 859.430 603.351 863.021 Q 604.857 866.612 607.135 869.747 Q 609.414 872.882 611.330 875.145 Q 613.247 877.407 618.649 890.928 "></path>
    <path id="STROKE_14a0b010-f69a-477c-8428-c664ea869719" opacity="1.000" fill="none" stroke="#000000" stroke-width="8.000" stroke-opacity="1.000" stroke-linecap="round" stroke-linejoin="round" d="M 465.198 819.207 Q 465.541 819.225 462.390 828.824 Q 459.238 838.423 457.381 844.354 Q 455.523 850.285 454.433 853.907 Q 453.343 857.529 452.861 860.404 Q 452.379 863.279 450.495 870.718 Q 448.612 878.157 447.500 882.032 Q 446.389 885.907 445.568 888.023 Q 444.747 890.138 442.348 896.617 Q 439.949 903.096 437.928 907.382 Q 435.906 911.667 434.037 914.784 Q 432.168 917.901 428.441 929.738 Q 428.323 929.452 428.073 928.527 "></path>
    <path id="STROKE_742a4877-599b-4b5b-a94d-f3a84ba670c0" opacity="1.000" fill="none" stroke="#000000" stroke-width="8.000" stroke-opacity="1.000" stroke-linecap="round" stroke-linejoin="round" d="M 403.902 768.391 Q 404.805 767.827 400.520 767.998 Q 396.235 768.169 393.311 768.529 Q 390.387 768.889 386.327 770.272 Q 382.266 771.655 372.691 775.221 Q 363.115 778.787 356.856 781.015 Q 350.597 783.244 346.447 784.506 Q 342.298 785.768 336.025 787.292 Q 329.753 788.817 325.911 790.150 Q 322.069 791.484 315.234 794.008 Q 308.399 796.532 299.435 800.032 Q 290.470 803.532 274.358 808.254 "></path>
    <path id="STROKE_71e81513-3c75-4292-8871-8f6354d71306" opacity="1.000" fill="none" stroke="#000000" stroke-width="8.000" stroke-opacity="1.000" stroke-linecap="round" stroke-linejoin="round" d="M 397.003 686.085 Q 395.554 685.774 390.969 678.550 Q 386.383 671.327 384.222 667.000 Q 382.060 662.674 380.695 660.959 Q 379.330 659.245 375.936 655.159 Q 372.542 651.072 367.814 646.203 Q 363.087 641.333 357.796 637.678 Q 352.505 634.024 347.265 629.500 Q 342.025 624.976 339.239 622.375 Q 336.452 619.774 334.406 618.426 Q 332.361 617.077 331.303 616.441 Q 330.245 615.805 327.167 614.156 Q 324.089 612.507 319.320 607.788 Q 314.550 603.069 307.692 597.776 "></path>
    <path id="STROKE_3bdf1bf3-ef4a-4ece-b57a-a841a3f0e6be" opacity="1.000" fill="none" stroke="#000000" stroke-width="8.000" stroke-opacity="1.000" stroke-linecap="round" stroke-linejoin="round" d="M 472.676 608.782 Q 472.271 608.515 471.818 603.632 Q 471.365 598.748 469.870 589.773 Q 468.375 580.799 465.265 569.009 Q 462.154 557.218 460.167 551.536 Q 458.179 545.855 457.103 538.667 Q 456.027 531.479 455.838 527.779 Q 455.650 524.079 455.503 516.587 Q 455.357 509.094 454.992 501.317 Q 454.627 493.539 451.506 476.081 "></path>
    <path id="STROKE_36ccea48-b739-40b5-884a-a572f8e8725e" opacity="1.000" fill="none" stroke="#0000ff" stroke-width="8.000" stroke-opacity="1.000" stroke-linecap="round" stroke-linejoin="round" d="M 360.194 994.508 Q 360.285 994.463 360.668 992.924 Q 361.052 991.385 360.891 990.212 Q 360.731 989.038 360.496 988.428 Q 360.261 987.819 360.334 987.900 Q 360.408 987.982 359.895 987.649 Q 359.383 987.317 358.356 986.732 Q 357.329 986.147 354.001 986.164 Q 350.674 986.181 347.404 986.514 Q 344.133 986.847 339.951 989.073 Q 335.770 991.298 332.188 993.682 Q 328.607 996.066 326.406 997.186 Q 324.204 998.306 322.603 1000.444 Q 321.001 1002.581 320.645 1003.414 Q 320.288 1004.248 319.807 1006.332 Q 319.327 1008.416 319.868 1010.397 Q 320.408 1012.379 321.272 1013.832 Q 322.135 1015.286 322.552 1015.637 Q 322.969 1015.988 323.036 1016.259 Q 323.104 1016.530 324.934 1018.042 Q 326.765 1019.553 332.004 1020.739 Q 337.243 1021.926 340.071 1022.657 Q 342.899 1023.389 344.522 1023.598 Q 346.145 1023.807 348.923 1024.539 Q 351.700 1025.271 353.326 1026.157 Q 354.951 1027.044 356.495 1029.542 Q 358.040 1032.041 359.004 1034.764 Q 359.969 1037.487 359.607 1041.551 Q 359.244 1045.614 358.623 1048.156 Q 358.001 1050.698 357.617 1053.115 Q 357.234 1055.532 355.578 1058.020 Q 353.922 1060.508 349.545 1061.538 Q 345.168 1062.567 342.003 1062.971 Q 338.838 1063.374 333.503 1062.662 Q 328.168 1061.951 323.538 1060.743 Q 318.908 1059.536 314.432 1054.803 "></path>
    <path id="STROKE_6d743d61-20c0-461d-9859-c66aec32a12a" opacity="1.000" fill="none" stroke="#0000ff" stroke-width="8.000" stroke-opacity="1.000" stroke-linecap="round" stroke-linejoin="round" d="M 393.528 993.666 Q 393.570 993.977 395.062 994.505 Q 396.555 995.033 397.552 999.191 Q 398.549 1003.349 397.719 1014.392 Q 396.890 1025.436 396.127 1032.718 Q 395.365 1040.001 395.950 1060.016 Q 395.792 1059.963 395.634 1059.911 "></path>
    <path id="STROKE_6aa2ee1a-7e4d-434f-811a-c1f0a8d81425" opacity="1.000" fill="none" stroke="#0000ff" stroke-width="8.000" stroke-opacity="1.000" stroke-linecap="round" stroke-linejoin="round" d="M 380.047 988.610 Q 380.407 987.961 384.717 986.718 Q 389.027 985.475 396.081 985.286 Q 403.134 985.097 410.221 985.111 Q 417.307 985.125 425.176 984.819 "></path>
    <path id="STROKE_eab208c7-2e76-4e73-a1c7-13fc9f0672a8" opacity="1.000" fill="none" stroke="#0000ff" stroke-width="8.000" stroke-opacity="1.000" stroke-linecap="round" stroke-linejoin="round" d="M 442.028 994.034 Q 441.717 994.374 438.361 996.793 Q 435.005 999.211 432.814 1002.325 Q 430.624 1005.439 429.693 1007.591 Q 428.762 1009.743 427.080 1015.437 Q 425.399 1021.130 424.325 1026.777 Q 423.252 1032.423 423.229 1036.991 Q 423.206 1041.560 423.632 1044.003 Q 424.057 1046.446 425.171 1049.690 Q 426.285 1052.934 427.646 1055.486 Q 429.006 1058.037 431.583 1058.933 Q 434.161 1059.829 436.922 1059.683 Q 439.684 1059.538 442.793 1057.533 Q 445.903 1055.529 450.399 1050.838 Q 454.895 1046.146 457.695 1044.036 Q 460.496 1041.926 462.856 1037.683 Q 465.217 1033.440 466.348 1028.063 Q 467.480 1022.685 467.737 1018.840 Q 467.995 1014.995 467.998 1011.173 Q 468.002 1007.351 467.146 1003.472 Q 466.289 999.593 463.577 995.502 Q 460.865 991.410 458.065 989.069 Q 455.265 986.728 452.913 985.559 Q 450.561 984.390 448.726 983.788 Q 446.891 983.186 443.976 984.608 "></path>
    <path id="STROKE_ebd94d97-e6f1-4a96-8853-80a7684e7dee" opacity="1.000" fill="none" stroke="#0000ff" stroke-width="8.000" stroke-opacity="1.000" stroke-linecap="round" stroke-linejoin="round" d="M 486.894 997.404 Q 486.660 997.763 483.609 1000.226 Q 480.559 1002.689 478.006 1009.296 Q 475.453 1015.903 474.215 1020.353 Q 472.976 1024.802 472.657 1028.837 Q 472.338 1032.873 472.311 1035.882 Q 472.283 1038.891 473.541 1041.721 Q 474.798 1044.551 477.290 1046.738 Q 479.781 1048.924 482.387 1050.754 Q 484.992 1052.585 488.750 1051.249 Q 492.508 1049.913 496.329 1047.998 Q 500.150 1046.083 502.770 1044.957 Q 505.391 1043.831 508.102 1041.785 Q 510.813 1039.740 512.857 1035.004 Q 514.902 1030.267 515.707 1027.359 Q 516.512 1024.452 516.950 1022.142 Q 517.388 1019.832 517.399 1015.342 Q 517.411 1010.852 515.961 1005.824 Q 514.512 1000.796 512.356 997.112 Q 510.200 993.428 508.361 991.113 Q 506.522 988.797 504.347 987.120 Q 502.172 985.443 500.033 984.367 Q 497.893 983.291 496.770 982.997 Q 495.647 982.703 494.607 982.619 Q 493.568 982.535 492.265 983.397 "></path>
    <path id="STROKE_638786bf-50e5-4d70-8efc-45ae87b953ea" opacity="1.000" fill="none" stroke="#0000ff" stroke-width="8.000" stroke-opacity="1.000" stroke-linecap="round" stroke-linejoin="round" d="M 529.759 991.454 Q 530.384 992.497 530.942 1001.878 Q 531.499 1011.258 531.171 1019.407 Q 530.843 1027.557 530.637 1031.832 Q 530.430 1036.107 529.926 1040.541 Q 529.421 1044.975 527.705 1049.853 Q 526.652 1050.037 524.230 1047.167 "></path>
    <path id="STROKE_d7bab439-d922-4e43-84da-14bff4c3e35a" opacity="1.000" fill="none" stroke="#0000ff" stroke-width="8.000" stroke-opacity="1.000" stroke-linecap="round" stroke-linejoin="round" d="M 533.077 995.614 Q 533.391 995.223 533.834 991.280 Q 534.277 987.336 535.259 984.867 Q 536.241 982.398 537.288 981.385 Q 538.334 980.372 541.564 980.417 Q 544.793 980.462 546.709 980.846 Q 548.624 981.229 550.470 982.112 Q 552.317 982.995 554.166 986.018 Q 556.014 989.041 556.904 991.721 Q 557.794 994.401 558.504 996.908 Q 559.215 999.414 559.558 1000.816 Q 559.900 1002.218 560.445 1004.877 Q 560.989 1007.536 561.893 1012.118 Q 562.797 1016.700 562.873 1021.959 Q 562.949 1027.219 562.822 1030.392 Q 562.694 1033.565 561.851 1036.386 Q 561.008 1039.207 559.987 1040.841 Q 558.966 1042.475 557.632 1043.758 Q 556.299 1045.040 555.431 1045.621 Q 554.563 1046.202 552.536 1047.176 Q 550.509 1048.150 546.470 1049.073 Q 542.431 1049.996 540.101 1050.205 Q 537.771 1050.414 536.452 1050.452 Q 535.132 1050.489 533.861 1049.697 Q 532.591 1048.906 532.129 1046.641 "></path>
    <path id="STROKE_3b918f45-3289-4232-836b-be58198f1971" opacity="1.000" fill="none" stroke="#0000ff" stroke-width="8.000" stroke-opacity="1.000" stroke-linecap="round" stroke-linejoin="round" d="M 578.048 992.402 Q 578.197 992.371 577.834 1003.140 Q 577.470 1013.908 577.110 1020.114 Q 576.749 1026.320 576.481 1030.311 Q 576.212 1034.301 576.103 1037.003 Q 575.994 1039.706 575.889 1050.748 "></path>
    <path id="STROKE_9ec08c0a-a4fb-4219-8472-65f4042475e5" opacity="1.000" fill="none" stroke="#0000ff" stroke-width="8.000" stroke-opacity="1.000" stroke-linecap="round" stroke-linejoin="round" d="M 622.125 989.190 Q 622.157 989.257 621.736 987.774 Q 621.316 986.290 620.412 985.334 Q 619.508 984.378 618.577 983.868 Q 617.645 983.359 617.117 983.373 Q 616.590 983.387 615.570 983.340 Q 614.550 983.293 613.544 983.464 Q 612.538 983.636 610.819 983.970 Q 609.101 984.305 607.135 985.152 Q 605.169 986.000 604.120 986.857 Q 603.071 987.714 601.955 989.220 Q 600.838 990.726 600.349 992.182 Q 599.860 993.638 599.744 994.083 Q 599.627 994.529 598.736 996.306 Q 597.845 998.084 597.218 999.906 Q 596.592 1001.728 596.779 1002.964 Q 596.965 1004.200 597.186 1004.443 Q 597.406 1004.687 597.993 1005.360 Q 598.581 1006.034 601.177 1007.762 Q 603.774 1009.491 606.060 1010.375 Q 608.345 1011.258 611.648 1012.531 Q 614.950 1013.805 617.541 1015.647 Q 620.132 1017.490 621.536 1019.954 Q 622.939 1022.418 623.161 1024.948 Q 623.384 1027.479 623.091 1029.450 Q 622.798 1031.422 621.218 1033.742 Q 619.637 1036.063 616.549 1037.184 Q 613.461 1038.305 611.415 1038.657 Q 609.369 1039.009 606.278 1039.311 Q 603.186 1039.613 600.023 1038.994 Q 596.861 1038.374 593.583 1036.793 "></path>
    <path id="STROKE_f8555c43-2153-4977-a668-4b358e240850" opacity="1.000" fill="none" stroke="#0000ff" stroke-width="8.000" stroke-opacity="1.000" stroke-linecap="round" stroke-linejoin="round" d="M -108.638 357.730 Q -110.364 357.490 -110.115 363.748 Q -109.866 370.006 -105.327 378.207 Q -100.789 386.409 -98.118 391.277 Q -95.448 396.144 -93.558 399.121 Q -91.667 402.098 -89.000 404.390 Q -86.334 406.682 -82.904 408.245 Q -79.474 409.809 -75.867 410.305 Q -72.259 410.801 -68.743 409.740 Q -65.227 408.679 -61.031 405.221 Q -56.834 401.762 -52.955 395.778 Q -49.075 389.794 -44.550 379.433 Q -40.025 369.073 -37.921 363.773 Q -35.816 358.473 -31.622 351.401 Q -27.428 344.328 -25.188 340.388 Q -22.948 336.447 -21.690 334.286 Q -20.431 332.124 -18.549 332.727 Q -16.667 333.329 -15.748 338.489 Q -14.829 343.649 -14.906 348.448 Q -14.982 353.246 -14.487 369.388 Q -13.992 385.530 -13.242 394.243 Q -12.492 402.956 -12.256 407.570 Q -12.020 412.184 -9.679 414.932 Q -8.803 414.892 -2.839 403.193 Q 3.126 391.493 6.505 383.472 Q 9.883 375.451 11.559 371.484 Q 13.234 367.517 15.287 363.385 Q 17.340 359.252 19.061 356.198 Q 20.782 353.145 22.192 351.546 Q 23.603 349.947 24.616 348.860 Q 25.629 347.773 28.803 347.450 Q 31.977 347.126 34.648 357.200 Q 37.319 367.273 38.915 374.947 Q 40.512 382.622 44.914 392.250 "></path>
  </g>
</svg>